<?xml version="1.0" encoding="UTF-8" standalone="no"?>
<!DOCTYPE svg  PUBLIC '-//W3C//DTD SVG 1.1//EN'  'http://www.w3.org/Graphics/SVG/1.1/DTD/svg11.dtd'>
<svg xmlns="http://www.w3.org/2000/svg" version="1.1">
<defs>
<font id="Apercu-Bold" horiz-adv-x="572">
<font-face font-family="Apercu" bbox="-75 -266 1227 953" underline-thickness="50" font-weight="700" ascent="800" units-per-em="1000" panose-1="2 0 8 3 4 0 0 2 0 4" underline-position="-150" cap-height="700" descent="-200" unicode-range="U+0020-FB02" x-height="504"/>
<missing-glyph horiz-adv-x="651" d="M441 106v488h-231v-488h231zM561 0h-471v700h471v-700z"/>
<glyph d="M96 398h-64v106h64v6q0 97 62 147.5t172 50.5q89 0 145 -29l-39 -94q-43 17 -99 17q-55 0 -86 -24t-31 -69v-5h283v-504h-124v398h-159v-398h-124v398z" glyph-name="uniFB01" unicode="fi"/>
<glyph d="M96 398h-64v106h64v26q0 88 45.5 133t128.5 45h277v-708h-124v602h-146q-57 0 -57 -63v-35h106v-106h-106v-398h-124v398z" horiz-adv-x="623" glyph-name="uniFB02" unicode="fl"/>
<glyph horiz-adv-x="651" glyph-name=".notdef" d="M441 106v488h-231v-488h231zM561 0h-471v700h471v-700z"/>
<glyph horiz-adv-x="0" glyph-name=".null"/>
<glyph horiz-adv-x="333" glyph-name="nonmarkingreturn"/>
<glyph horiz-adv-x="248" glyph-name="space" unicode=" "/>
<glyph d="M100 76q0 35 24.5 59.5t58.5 24.5t58.5 -24.5t24.5 -59.5q0 -34 -24 -58t-59 -24t-59 24t-24 58zM129 242l-28 458h164l-28 -458h-108z" horiz-adv-x="360" glyph-name="exclam" unicode="!"/>
<glyph d="M380 459h-79l-31 249h141zM190 459h-79l-31 249h141z" horiz-adv-x="491" glyph-name="quotedbl" unicode='&quot;'/>
<glyph d="M437 409h-114l-24 -118h114zM223 409h-118v98h138l40 193h100l-40 -193h114l39 193h100l-39 -193h114v-98h-134l-24 -118h118v-98h-138l-40 -193h-100l40 193h-114l-39 -193h-100l39 193h-114v98h134z" horiz-adv-x="736" glyph-name="numbersign" unicode="#"/>
<glyph d="M470 581l-105 -67q-38 74 -97 74q-29 0 -48 -18t-19 -46q0 -54 105 -104q42 -18 67.5 -32t59 -39.5t50.5 -59.5t17 -77q0 -86 -43.5 -142t-120.5 -72v-88h-122v90q-69 17 -117 68t-62 120l105 66q40 -142 139 -142q91 0 91 91q0 54 -104 98q-39 17 -65.5 31.5t-58.5 40 t-48.5 61t-16.5 80.5q0 68 36.5 118.5t100.5 68.5v89h122v-91q90 -25 134 -118z" horiz-adv-x="537" glyph-name="dollar" unicode="$"/>
<glyph d="M117 20l538 718l72 -57l-538 -719zM576 198q-16 -19 -16 -46q0 -28 16 -47q16 -18 46 -18q28 0 45 18q17 17 17 47q0 29 -17 46q-16 19 -45 19q-30 0 -46 -19zM504 38q-46 46 -46 114t46 114t118 46q71 0 117 -46q47 -47 47 -114t-47 -114q-46 -46 -117 -46 q-72 0 -118 46zM170 594q-16 -19 -16 -46q0 -28 16 -47q17 -18 46 -18q28 0 45 18q17 17 17 47q0 29 -17 46q-16 19 -45 19q-30 0 -46 -19zM98 434q-46 46 -46 114t46 114t118 46q71 0 117 -46q47 -47 47 -114t-47 -114q-46 -46 -117 -46q-72 0 -118 46z" horiz-adv-x="838" glyph-name="percent" unicode="%"/>
<glyph d="M314 602q-23 0 -38 -14t-15 -37q0 -36 32 -77q71 32 71 81q0 21 -14 34t-36 13zM289 107q66 0 114 39l-141 188q-76 -46 -76 -126q0 -43 29 -72t74 -29zM288 -8q-96 0 -159 57q-63 59 -63 157q0 70 36 125.5t97 90.5q-48 68 -48 137q0 63 45 106q44 43 118 43t118 -42 q44 -41 44 -98t-31.5 -104t-82.5 -74l115 -151q29 53 51 126l72 -84q-18 -78 -52 -135l112 -146h-147l-41 54q-79 -62 -184 -62z" horiz-adv-x="696" glyph-name="ampersand" unicode="&amp;"/>
<glyph d="M190 459h-79l-31 249h141z" horiz-adv-x="301" glyph-name="quotesingle" unicode="&apos;"/>
<glyph d="M169 750h107q-92 -169 -92 -400q0 -135 22 -223q22 -86 70 -177h-107q-32 57 -52 103q-19 43 -36 123q-17 82 -17 174q0 91 17 173q17 79 36 123q23 51 52 104z" horiz-adv-x="300" glyph-name="parenleft" unicode="("/>
<glyph d="M24 750h107q29 -53 52 -104q21 -48 37 -128.5t16 -167.5q0 -92 -17 -174q-17 -80 -36 -123q-20 -46 -52 -103h-107q46 87 69 177q23 92 23 223q0 231 -92 400z" horiz-adv-x="300" glyph-name="parenright" unicode=")"/>
<glyph d="M192 708h102v-113l109 36l33 -99l-109 -37l67 -91l-85 -63l-66 93l-66 -93l-85 63l67 91l-109 37l33 99l109 -36v113z" horiz-adv-x="486" glyph-name="asterisk" unicode="*"/>
<glyph d="M239 371v184h108v-184h184v-108h-184v-184h-108v184h-184v108h184z" horiz-adv-x="584" glyph-name="plus" unicode="+"/>
<glyph d="M144 -156h-87l75 302h167z" horiz-adv-x="363" glyph-name="comma" unicode=","/>
<glyph d="M438 263h-373v108h373v-108z" horiz-adv-x="503" glyph-name="hyphen" unicode="-"/>
<glyph d="M104 18q-24 24 -24 60t24 60t60 24t60 -24t24 -60t-24 -60t-60 -24t-60 24z" horiz-adv-x="328" glyph-name="period" unicode="."/>
<glyph d="M8 -50l436 800h120l-436 -800h-120z" horiz-adv-x="550" glyph-name="slash" unicode="/"/>
<glyph d="M454 350q0 242 -134 242t-134 -242t134 -242t134 242zM129 613q68 95 191 95t191 -95q67 -94 67 -263q0 -170 -67 -264t-191 -94t-191 94t-67 264q0 169 67 263z" horiz-adv-x="640" glyph-name="zero" unicode="0"/>
<glyph d="M68 580l205 120h55v-700h-126v524l-134 -80v136z" horiz-adv-x="414" glyph-name="one" unicode="1"/>
<glyph d="M509 0h-445v50l250 323q54 67 54 127q0 43 -22 67.5t-64 24.5q-38 0 -61.5 -24t-29.5 -68l-116 22q5 80 64 133t146 53q97 0 153 -55.5t56 -147.5q0 -87 -60 -166l-171 -223h246v-116z" horiz-adv-x="579" glyph-name="two" unicode="2"/>
<glyph d="M56 194l121 16q25 -102 113 -102q49 0 80 32t31 85q0 58 -30 90.5t-80 32.5q-33 0 -61 -15l-50 70l132 181h-223v116h401v-44l-165 -223q24 2 28 2q80 0 127 -57t47 -151q0 -107 -67 -171t-170 -64q-96 0 -161 56q-64 56 -73 146z" horiz-adv-x="589" glyph-name="three" unicode="3"/>
<glyph d="M360 513l-148 -267h148v267zM486 0h-126v130h-301v64l295 506h132v-454h78v-116h-78v-130z" horiz-adv-x="615" glyph-name="four" unicode="4"/>
<glyph d="M72 183l119 22q19 -97 105 -97q51 0 77.5 32t26.5 92q0 59 -28.5 90t-81.5 31q-68 0 -124 -63l-79 16l39 394h360v-116h-257l-16 -146q44 26 99 26q104 0 159 -61.5t55 -170.5q0 -106 -63 -174q-63 -66 -167 -66q-91 0 -153 52q-62 53 -71 139z" horiz-adv-x="583" glyph-name="five" unicode="5"/>
<glyph d="M196 220q0 -49 31 -80.5t77 -31.5t77 31t31 81q0 51 -30 81.5t-78 30.5t-78 -30.5t-30 -81.5zM448 708l-152 -260h16q97 0 161 -64q65 -63 65 -164q0 -99 -67 -163q-68 -65 -167 -65t-167 65q-67 64 -67 163q0 65 34 123l204 365h140z" horiz-adv-x="593" glyph-name="six" unicode="6"/>
<glyph d="M49 700h424v-52l-264 -648h-124l239 584h-275v116z" horiz-adv-x="497" glyph-name="seven" unicode="7"/>
<glyph d="M213 515q0 -40 23 -64.5t61 -24.5t61 24.5t23 64.5q0 39 -23 63t-61 24t-61 -24t-23 -63zM370 283q-28 27 -73 27t-73 -27q-29 -27 -29 -74t29 -74t73 -27q45 0 73 27q29 27 29 74t-29 74zM498 517q0 -88 -66 -140q93 -53 93 -168q0 -100 -67 -158q-67 -59 -161 -59 t-162 59q-66 59 -66 158q0 115 92 168q-65 51 -65 140q0 79 56 135q58 56 145 56q88 0 144 -56q57 -56 57 -135z" horiz-adv-x="594" glyph-name="eight" unicode="8"/>
<glyph d="M413 480q0 49 -31 80.5t-77 31.5t-77 -31t-31 -81q0 -51 30 -81.5t78 -30.5t78 30.5t30 81.5zM161 -8l152 260h-16q-97 0 -162 63q-64 64 -64 165q0 99 67 163q68 65 167 65q98 0 166 -65t68 -163q0 -65 -34 -123l-204 -365h-140z" horiz-adv-x="593" glyph-name="nine" unicode="9"/>
<glyph d="M106 368q-24 24 -24 60t24 60t60 24t60 -24t24 -60t-24 -60t-60 -24t-60 24zM106 18q-24 24 -24 60t24 60t60 24t60 -24t24 -60t-24 -60t-60 -24t-60 24z" horiz-adv-x="338" glyph-name="colon" unicode=":"/>
<glyph d="M105 368q-24 24 -24 60t24 60t60 24t60 -24t24 -60t-24 -60t-60 -24t-60 24zM99 -156h-87l75 302h167z" horiz-adv-x="338" glyph-name="semicolon" unicode=";"/>
<glyph d="M436 48l-391 204v116l391 204v-131l-252 -131l252 -131v-131z" horiz-adv-x="487" glyph-name="less" unicode="&lt;"/>
<glyph d="M527 166h-437v108h437v-108zM527 346h-437v108h437v-108z" horiz-adv-x="617" glyph-name="equal" unicode="="/>
<glyph d="M51 572l391 -204v-116l-391 -204v131l252 131l-252 131v131z" horiz-adv-x="487" glyph-name="greater" unicode="&gt;"/>
<glyph d="M148 76q0 35 24.5 59.5t58.5 24.5t58.5 -24.5t24.5 -59.5q0 -34 -24 -58t-59 -24t-59 24t-24 58zM288 349l88 -33q-17 -49 -54.5 -76t-90.5 -27q-61 0 -99.5 35.5t-38.5 92.5q0 89 108 130q57 21 78.5 39.5t21.5 43.5q0 24 -17.5 37t-47.5 13q-66 0 -85 -67l-109 18 q12 68 63.5 110.5t127.5 42.5q84 0 134.5 -43t50.5 -115q0 -56 -33 -87q-30 -30 -105 -59q-51 -21 -68 -33.5t-17 -32.5q0 -15 10.5 -25t25.5 -10q41 0 57 46z" horiz-adv-x="460" glyph-name="question" unicode="?"/>
<glyph d="M362 291q0 -81 72 -81q45 0 75 34.5t30 85.5q0 40 -21 62t-60 22q-40 0 -68 -34t-28 -89zM247 296q0 92 58 156t158 64q60 0 104 -38l11 31h83l-20 -219q0 -8 -0.5 -15t-0.5 -11l-1 -3q0 -51 39 -51q60 0 60 147q0 126 -71.5 192.5t-195.5 66.5q-117 0 -205 -83 q-86 -83 -86 -232q0 -72 26 -129.5t68.5 -92t93 -53t102.5 -18.5q28 0 66 2q79 9 172 53l39 -97q-69 -32 -133 -46q-65 -14 -144 -14q-182 0 -296 111q-114 112 -114 284q0 189 116 303t300 114q183 0 282 -101q100 -100 100 -265q0 -109 -53 -177q-52 -67 -137 -67 q-37 0 -67 19.5t-42 49.5q-56 -69 -134 -69q-82 0 -130 51.5t-48 136.5z" horiz-adv-x="906" glyph-name="at" unicode="@"/>
<glyph d="M381 285l-74 243l-74 -243h148zM609 0h-140l-51 165h-222l-51 -165h-140l237 700h130z" horiz-adv-x="614" glyph-name="A" unicode="A"/>
<glyph d="M339 308h-119v-188h119q113 0 113 94t-113 94zM336 580h-116v-152h119q42 0 62 18t20 58t-20.5 58t-64.5 18zM90 0v700h256q94 0 147 -48.5t53 -140.5q0 -43 -18 -77.5t-51 -51.5q105 -44 105 -171q0 -101 -61 -156t-170 -55h-261z" horiz-adv-x="624" glyph-name="B" unicode="B"/>
<glyph d="M669 496l-117 -30q-47 122 -173 122q-86 0 -143 -61q-56 -62 -56 -177t56 -177q57 -61 143 -61q126 0 173 122l117 -30q-25 -101 -100.5 -156.5t-189.5 -55.5q-138 0 -235 95q-96 95 -96 263t96 263q97 95 235 95q114 0 189.5 -55.5t100.5 -156.5z" horiz-adv-x="700" glyph-name="C" unicode="C"/>
<glyph d="M220 580v-460h48q92 0 158 45q77 51 77 185t-77 185q-66 45 -158 45h-48zM309 0h-219v700h219q64 0 121 -21t103.5 -62t74 -110t27.5 -157t-27.5 -157t-74 -110t-103.5 -62t-121 -21z" horiz-adv-x="683" glyph-name="D" unicode="D"/>
<glyph d="M90 0v700h433v-120h-303v-147h243v-120h-243v-193h313v-120h-443z" horiz-adv-x="575" glyph-name="E" unicode="E"/>
<glyph d="M90 0v700h443v-120h-313v-160h252v-120h-252v-300h-130z" horiz-adv-x="562" glyph-name="F" unicode="F"/>
<glyph d="M661 0h-109l-11 75q-56 -83 -170 -83q-135 0 -229 94t-94 264t97 264t236 94q111 0 187 -59.5t104 -161.5l-119 -31q-54 132 -172 132q-92 0 -146.5 -62t-54.5 -176q0 -117 53.5 -177.5t144.5 -60.5q68 0 109 38t48 95h-130v108h256v-353z" horiz-adv-x="732" glyph-name="G" unicode="G"/>
<glyph d="M220 0h-130v700h130v-266h280v266h130v-700h-130v314h-280v-314z" horiz-adv-x="720" glyph-name="H" unicode="H"/>
<glyph d="M90 700h130v-700h-130v700z" horiz-adv-x="310" glyph-name="I" unicode="I"/>
<glyph d="M2 173l128 27q16 -88 88 -88q47 0 70 28t23 92v468h130v-454q0 -133 -56 -193.5t-167 -60.5q-91 0 -148 48t-68 133z" horiz-adv-x="515" glyph-name="J" unicode="J"/>
<glyph d="M90 0v700h130v-260l239 260h160l-284 -313l304 -387h-165l-254 334v-334h-130z" horiz-adv-x="643" glyph-name="K" unicode="K"/>
<glyph d="M90 0v700h130v-580h297v-120h-427z" horiz-adv-x="531" glyph-name="L" unicode="L"/>
<glyph d="M220 0h-130v700h146l165 -437l165 437h146v-700h-130v432l-134 -368h-94l-134 368v-432z" horiz-adv-x="802" glyph-name="M" unicode="M"/>
<glyph d="M484 238v462h130v-700h-137l-257 462v-462h-130v700h137z" horiz-adv-x="704" glyph-name="N" unicode="N"/>
<glyph d="M519 528q-55 60 -141 60q-85 0 -142 -60q-56 -61 -56 -178t56 -178q57 -60 142 -60q86 0 141 60q57 60 57 178t-57 178zM214 670q74 38 164 38q196 0 283 -158q47 -83 47 -200q0 -114 -45.5 -197.5t-120.5 -123.5q-73 -37 -164 -37q-194 0 -284 158q-46 82 -46 200 q0 114 45.5 198t120.5 122z" horiz-adv-x="756" glyph-name="O" unicode="O"/>
<glyph d="M220 394h129q92 0 92 93t-92 93h-129v-186zM354 274h-134v-274h-130v700h264q105 0 162 -57.5t57 -155.5t-57 -155.5t-162 -57.5z" horiz-adv-x="592" glyph-name="P" unicode="P"/>
<glyph d="M485 142l-91 92l91 90l76 -77q15 44 15 103q0 118 -57 178q-55 60 -141 60q-85 0 -142 -60q-56 -61 -56 -178t56 -178q57 -60 142 -60q60 0 107 30zM708 350q0 -119 -47 -202l67 -66l-91 -90l-61 60q-82 -60 -198 -60q-194 0 -284 158q-46 82 -46 200t46 200 q90 158 284 158q90 0 164 -38q75 -38 120.5 -122t45.5 -198z" horiz-adv-x="756" glyph-name="Q" unicode="Q"/>
<glyph d="M220 422h126q82 0 82 79t-82 79h-126v-158zM558 501q0 -70 -34 -119.5t-97 -68.5l194 -313h-145l-188 302h-68v-302h-130v700h255q101 0 157 -54t56 -145z" horiz-adv-x="653" glyph-name="R" unicode="R"/>
<glyph d="M470 581l-105 -67q-38 74 -97 74q-29 0 -48 -18t-19 -46q0 -54 105 -104q42 -18 67.5 -32t59 -39.5t50.5 -59.5t17 -77q0 -102 -60.5 -161t-163.5 -59q-91 0 -158 56q-66 57 -83 140l105 66q40 -142 139 -142q91 0 91 91q0 54 -104 98q-39 17 -65.5 31.5t-58.5 40 t-48.5 61t-16.5 80.5q0 84 54 139q55 55 137 55q142 0 202 -127z" horiz-adv-x="537" glyph-name="S" unicode="S"/>
<glyph d="M202 580h-194v120h518v-120h-194v-580h-130v580z" horiz-adv-x="534" glyph-name="T" unicode="T"/>
<glyph d="M459 700h130v-434q0 -133 -69.5 -203.5t-191.5 -70.5t-191.5 70.5t-69.5 203.5v434h130v-436q0 -152 131 -152t131 152v436z" horiz-adv-x="656" glyph-name="U" unicode="U"/>
<glyph d="M603 700l-235 -700h-132l-235 700h144l157 -518l157 518h144z" horiz-adv-x="604" glyph-name="V" unicode="V"/>
<glyph d="M647 185l117 515h138l-183 -700h-132l-127 412l-127 -412h-132l-183 700h138l117 -515l131 441h112z" horiz-adv-x="920" glyph-name="W" unicode="W"/>
<glyph d="M296 502l114 198h142l-185 -322l218 -378h-144l-145 253l-145 -253h-144l218 378l-185 322h142z" horiz-adv-x="592" glyph-name="X" unicode="X"/>
<glyph d="M202 298l-202 402h140l127 -272l127 272h140l-202 -402v-298h-130v298z" horiz-adv-x="534" glyph-name="Y" unicode="Y"/>
<glyph d="M333 580h-286v120h464v-60l-300 -520h314v-120h-495v60z" horiz-adv-x="558" glyph-name="Z" unicode="Z"/>
<glyph d="M320 -50h-230v800h230v-108h-110v-584h110v-108z" horiz-adv-x="352" glyph-name="bracketleft" unicode="["/>
<glyph d="M422 -50l-436 800h120l436 -800h-120z" horiz-adv-x="550" glyph-name="backslash" unicode="\"/>
<glyph d="M32 750h230v-800h-230v108h110v584h-110v108z" horiz-adv-x="352" glyph-name="bracketright" unicode="]"/>
<glyph d="M51 403l195 297h107l195 -297h-120l-128 189l-129 -189h-120z" horiz-adv-x="599" glyph-name="asciicircum" unicode="^"/>
<glyph d="M480 -108h-455v108h455v-108z" horiz-adv-x="505" glyph-name="underscore" unicode="_"/>
<glyph d="M13 708h168l64 -148h-95z" horiz-adv-x="260" glyph-name="grave" unicode="`"/>
<glyph d="M168 147q0 -21 14 -35t38 -14q46 0 81 29q36 29 36 75v10h-83q-86 0 -86 -65zM162 348l-105 24q12 63 64.5 101.5t127.5 38.5q212 0 212 -211v-301h-102l-13 64q-58 -72 -155 -72q-68 0 -110.5 41t-42.5 112q0 75 59.5 120t155.5 45h84v22q0 74 -88 74q-68 0 -87 -58z " horiz-adv-x="514" glyph-name="a" unicode="a"/>
<glyph d="M393 139q33 40 33 113q0 72 -33 113t-84 41t-84 -41q-32 -41 -32 -113q0 -73 32 -114q33 -40 84 -40t84 41zM326 -8q-40 0 -74.5 18.5t-47.5 41.5v-52h-124v708h124v-250q18 23 52 38.5t70 15.5q110 0 170 -69.5t60 -190.5t-60 -190.5t-170 -69.5z" horiz-adv-x="599" glyph-name="b" unicode="b"/>
<glyph d="M407 181l111 -45q-58 -144 -229 -144q-117 0 -182 74q-64 73 -64 186t64 186q65 74 182 74q171 0 229 -144l-111 -45q-41 83 -118 83q-56 0 -86 -41.5t-30 -112.5t30 -112.5t86 -41.5q77 0 118 83z" horiz-adv-x="551" glyph-name="c" unicode="c"/>
<glyph d="M206 365q-33 -41 -33 -113q0 -73 33 -113q33 -41 84 -41q52 0 83 40q33 40 33 114q0 72 -33 113q-32 41 -83 41t-84 -41zM273 512q36 0 70 -15.5t52 -38.5v250h124v-708h-124v52q-13 -23 -47.5 -41.5t-74.5 -18.5q-110 0 -170 69.5t-60 190.5t60 190.5t170 69.5z" horiz-adv-x="599" glyph-name="d" unicode="d"/>
<glyph d="M285 406q-43 0 -72.5 -27.5t-36.5 -68.5h217q-21 96 -108 96zM520 263v-51h-347q2 -48 34.5 -81t84.5 -33q77 0 122 78l100 -37q-64 -147 -229 -147q-62 0 -110.5 23.5t-76 62t-41.5 83t-14 91.5t14 91.5t41.5 83t76 62t110.5 23.5q59 0 106 -22.5t75 -61.5 q54 -74 54 -165z" horiz-adv-x="556" glyph-name="e" unicode="e"/>
<glyph d="M96 398h-64v106h64v26q0 88 45.5 133t128.5 45q56 0 94 -20l-27 -100q-34 14 -60 14q-57 0 -57 -63v-35h106v-106h-106v-398h-124v398z" horiz-adv-x="368" glyph-name="f" unicode="f"/>
<glyph d="M197 342q0 -30 19.5 -49t49.5 -19t49.5 19t19.5 49q0 31 -19.5 50.5t-49.5 19.5t-49.5 -19.5t-19.5 -50.5zM291 6h-68q-37 0 -58 4q-11 -17 -11 -46q0 -35 30.5 -53.5t82.5 -18.5q105 0 105 62q0 52 -81 52zM81 342q0 76 53 123t132 47q50 0 93 -22l95 50l49 -82l-72 -36 q20 -35 20 -80q0 -76 -53 -123q-52 -45 -132 -45q-37 0 -73 11q-24 -13 -24 -38q0 -37 47 -37h103q82 0 129.5 -39t47.5 -109q0 -58 -35 -99q-64 -75 -194 -75q-101 0 -165 43q-63 43 -63 123q0 62 41 100q-26 32 -26 78q0 68 62 106q-35 44 -35 104z" horiz-adv-x="515" glyph-name="g" unicode="g"/>
<glyph d="M80 0v708h124v-285q56 89 160 89q74 0 115.5 -39t41.5 -113v-360h-124v316q0 90 -75 90q-51 0 -84.5 -51t-33.5 -142v-213h-124z" horiz-adv-x="593" glyph-name="h" unicode="h"/>
<glyph d="M68 0v504h124v-504h-124zM73 592q-23 23 -23 57t23 57t57 23t57 -23t23 -57t-23 -57t-57 -23t-57 23z" horiz-adv-x="260" glyph-name="i" unicode="i"/>
<glyph d="M73 592q-23 23 -23 57t23 57t57 23t57 -23t23 -57t-23 -57t-57 -23t-57 23zM68 43v461h124v-446q0 -117 -51 -181t-160 -89l-30 109q61 16 89 48.5t28 97.5z" horiz-adv-x="260" glyph-name="j" unicode="j"/>
<glyph d="M80 0v708h124v-402l164 198h153l-202 -232l215 -272h-152l-178 238v-238h-124z" horiz-adv-x="537" glyph-name="k" unicode="k"/>
<glyph d="M78 0v708h124v-708h-124z" horiz-adv-x="278" glyph-name="l" unicode="l"/>
<glyph d="M499 196v-196h-124v336q0 70 -62 70q-49 0 -79 -58t-30 -163v-185h-124v504h124v-81q59 89 145 89q50 0 88 -27t53 -77q59 104 154 104q70 0 110 -41t40 -114v-357h-124v336q0 70 -62 70q-49 0 -79 -55t-30 -155z" horiz-adv-x="866" glyph-name="m" unicode="m"/>
<glyph d="M80 0v504h124v-81q62 89 156 89q71 0 113 -39.5t42 -112.5v-360h-124v323q0 83 -72 83q-49 0 -82 -56t-33 -149v-201h-124z" horiz-adv-x="587" glyph-name="n" unicode="n"/>
<glyph d="M207 361q-34 -43 -34 -109t34 -110q35 -44 92 -44t92 44q34 44 34 110t-34 109q-35 45 -92 45t-92 -45zM112 65q-69 73 -69 187q0 112 69 186t187 74t187 -74t69 -186q0 -114 -69 -187t-187 -73t-187 73z" horiz-adv-x="598" glyph-name="o" unicode="o"/>
<glyph d="M393 139q33 40 33 113q0 72 -33 113t-84 41t-84 -41q-32 -41 -32 -113q0 -73 32 -114q33 -40 84 -40t84 41zM326 -8q-36 0 -70 15.5t-52 38.5v-250h-124v708h124v-52q13 23 47.5 41.5t74.5 18.5q110 0 170 -69.5t60 -190.5t-60 -190.5t-170 -69.5z" horiz-adv-x="599" glyph-name="p" unicode="p"/>
<glyph d="M206 365q-33 -41 -33 -113q0 -73 33 -113q33 -41 84 -41q52 0 83 40q33 40 33 114q0 72 -33 113q-32 41 -83 41t-84 -41zM273 512q40 0 74.5 -18.5t47.5 -41.5v52h124v-708h-124v250q-18 -23 -52 -38.5t-70 -15.5q-110 0 -170 69.5t-60 190.5t60 190.5t170 69.5z" horiz-adv-x="599" glyph-name="q" unicode="q"/>
<glyph d="M204 179v-179h-124v504h124v-82q57 90 149 90q30 0 61 -10l-23 -115q-23 14 -52 14q-62 0 -98.5 -55.5t-36.5 -166.5z" horiz-adv-x="422" glyph-name="r" unicode="r"/>
<glyph d="M231 512q49 0 91.5 -22.5t66.5 -59.5l-74 -68q-35 44 -84 44q-20 0 -33 -11t-13 -31q0 -31 48 -49l36 -13l43 -15q7 -3 36 -19q27 -14 36 -26q31 -35 31 -82q0 -69 -50 -119q-49 -49 -129 -49q-72 0 -125 41q-52 40 -75 95l99 53q30 -83 101 -83q62 0 62 54q0 25 -27 38 q-12 7 -28 12q-9 4 -36 14t-35 13q-51 22 -76.5 53t-25.5 83q0 61 45 104q44 43 116 43z" horiz-adv-x="456" glyph-name="s" unicode="s"/>
<glyph d="M334 110l29 -100q-39 -18 -82 -18q-88 0 -136.5 47.5t-48.5 138.5v220h-78v106h78v126l124 78v-204h133v-106h-133v-218q0 -44 16 -63t50 -19q26 0 48 12z" horiz-adv-x="392" glyph-name="t" unicode="t"/>
<glyph d="M507 504v-504h-124v81q-62 -89 -156 -89q-71 0 -113 39.5t-42 112.5v360h124v-323q0 -83 72 -83q49 0 82 56t33 149v201h124z" horiz-adv-x="587" glyph-name="u" unicode="u"/>
<glyph d="M176 0l-171 504h125l102 -351l102 351h125l-171 -504h-112z" horiz-adv-x="464" glyph-name="v" unicode="v"/>
<glyph d="M526 158l90 346h125l-161 -504h-110l-87 326l-87 -326h-110l-161 504h125l90 -346l85 346h116z" horiz-adv-x="766" glyph-name="w" unicode="w"/>
<glyph d="M241 373l82 131h130l-146 -235l167 -269h-130l-103 164l-103 -164h-130l167 269l-146 235h130z" horiz-adv-x="482" glyph-name="x" unicode="x"/>
<glyph d="M186 32l-183 472h125l117 -316l110 316h124l-260 -708h-120z" horiz-adv-x="481" glyph-name="y" unicode="y"/>
<glyph d="M259 398h-202v106h356v-48l-216 -350h230v-106h-386v48z" horiz-adv-x="465" glyph-name="z" unicode="z"/>
<glyph d="M136 50v166q0 46 -17.5 63t-62.5 17v108q45 0 62.5 17t17.5 63v166q0 45 27.5 72.5t72.5 27.5h88v-108h-27q-24 0 -32.5 -9.5t-8.5 -35.5v-149q0 -51 -17.5 -71.5t-56.5 -26.5q39 -6 56.5 -26.5t17.5 -71.5v-149q0 -26 8.5 -35.5t32.5 -9.5h27v-108h-88q-45 0 -72.5 27.5 t-27.5 72.5z" horiz-adv-x="346" glyph-name="braceleft" unicode="{"/>
<glyph d="M90 -50v800h122v-800h-122z" horiz-adv-x="302" glyph-name="bar" unicode="|"/>
<glyph d="M210 216v-166q0 -45 -27.5 -72.5t-72.5 -27.5h-88v108h27q24 0 32.5 9.5t8.5 35.5v149q0 51 17.5 71.5t56.5 26.5q-39 6 -56.5 26.5t-17.5 71.5v149q0 26 -8.5 35.5t-32.5 9.5h-27v108h88q45 0 72.5 -27.5t27.5 -72.5v-166q0 -46 17.5 -63t62.5 -17v-108q-45 0 -62.5 -17 t-17.5 -63z" horiz-adv-x="346" glyph-name="braceright" unicode="}"/>
<glyph d="M138 249l-64 69q19 47 61 79t90 32q45 0 106 -30q63 -29 94 -29q51 0 91 51l64 -69q-19 -47 -61 -79t-90 -32q-43 0 -106 29q-61 30 -94 30q-51 0 -91 -51z" horiz-adv-x="654" glyph-name="asciitilde" unicode="~"/>
<glyph horiz-adv-x="248" glyph-name="uni00A0" unicode=" "/>
<glyph d="M94 420q0 34 24 58t59 24t59 -24t24 -58q0 -35 -24.5 -59.5t-58.5 -24.5t-58.5 24.5t-24.5 59.5zM231 254l28 -458h-164l28 458h108z" horiz-adv-x="360" glyph-name="exclamdown" unicode="¡"/>
<glyph d="M418 279l111 -45q-47 -116 -168 -138v-146h-122v146q-88 18 -136.5 87t-48.5 167t48.5 167t136.5 87v146h122v-146q121 -22 168 -138l-111 -45q-41 83 -118 83q-56 0 -86 -41.5t-30 -112.5t30 -112.5t86 -41.5q77 0 118 83z" horiz-adv-x="583" glyph-name="cent" unicode="¢"/>
<glyph d="M136 306h-83v116h48q-16 45 -16 78q0 91 58 149q59 59 155 59q77 0 130 -36t77 -102l-103 -49q-33 71 -104 71q-39 0 -64 -25.5t-25 -73.5q0 -39 8 -71h173v-116h-138q3 -18 3 -38q0 -54 -19.5 -91t-61.5 -72q53 32 99 32q25 0 55 -15t53 -15q21 0 37.5 12t34.5 44 l86 -54q-66 -117 -165 -117q-37 0 -80 18q-42 19 -72 19q-52 0 -116 -37l-69 76l54 53q54 60 54 124q0 27 -9 61z" horiz-adv-x="557" glyph-name="sterling" unicode="£"/>
<glyph d="M225 371q-21 -24 -21 -64q0 -39 21 -65q23 -24 60 -24q38 0 59 24q22 25 22 65q0 41 -22 64q-21 25 -59 25t-60 -25zM117 42l-97 97l89 69q-25 47 -25 99t25 99l-89 69l97 97l69 -89q43 26 99 26t99 -26l69 89l97 -97l-89 -69q25 -47 25 -99t-25 -99l89 -69l-97 -97 l-69 89q-43 -26 -99 -26t-99 26z" horiz-adv-x="570" glyph-name="currency" unicode="¤"/>
<glyph d="M152 406l-144 294h140l121 -272l121 272h140l-144 -294h91v-108h-143v-72h143v-108h-143v-118h-130v118h-143v108h143v72h-143v108h91z" horiz-adv-x="538" glyph-name="yen" unicode="¥"/>
<glyph d="M212 750v-349h-122v349h122zM90 -50v349h122v-349h-122z" horiz-adv-x="302" glyph-name="brokenbar" unicode="¦"/>
<glyph d="M382 213q0 35 -41 60q-17 11 -41 22q-13 6 -51 24.5t-51 24.5q-30 -22 -30 -61q0 -35 41 -60q14 -9 40 -23l52 -24q31 -14 51 -24q30 24 30 61zM490 222q0 -88 -59 -139q25 -43 25 -100q0 -86 -53 -141q-52 -54 -128 -54q-160 0 -200 151l110 36q26 -71 90 -71 q28 0 44.5 18.5t16.5 53.5q0 36 -35 68q-13 13 -57 35l-38 19l-41 21q-105 53 -105 155q0 88 59 139q-25 43 -25 100q0 86 53 141q53 54 128 54q160 0 200 -151l-110 -36q-26 71 -90 71q-28 0 -44.5 -18.5t-16.5 -53.5q0 -34 34 -68q12 -11 57 -35l39 -20q8 -4 22 -10.5 t19 -9.5q105 -53 105 -155z" horiz-adv-x="549" glyph-name="section" unicode="§"/>
<glyph d="M243 600q-20 20 -20 51t20 51t51 20t51 -20t20 -51t-20 -51t-51 -20t-51 20zM36 600q-20 20 -20 51t20 51t51 20t51 -20t20 -51t-20 -51t-51 -20t-51 20z" horiz-adv-x="381" glyph-name="dieresis" unicode="¨"/>
<glyph d="M533 294l97 -19q-10 -67 -62 -104t-123 -37q-85 0 -143 57t-58 159t58 159t143 57q71 0 123 -37t62 -104l-97 -19q-21 65 -88 65q-40 0 -65.5 -34t-25.5 -87t25.5 -87t65.5 -34q67 0 88 65zM247 554q-77 -80 -77 -204t77 -204t198 -80t198 80t77 204t-77 204t-198 80 t-198 -80zM170 72q-110 113 -110 278t110 278q111 112 275 112q165 0 274 -112q111 -113 111 -278t-111 -278q-109 -112 -274 -112q-164 0 -275 112z" horiz-adv-x="890" glyph-name="copyright" unicode="©"/>
<glyph d="M160 416q0 -16 10.5 -26.5t30.5 -10.5q37 0 64.5 23.5t27.5 58.5v11h-66q-31 0 -49 -15t-18 -41zM155 575l-82 19q9 49 50 79.5t101 30.5q166 0 166 -166v-238h-81l-9 52q-48 -56 -122 -56q-52 0 -86 32.5t-34 87.5q0 59 47 94.5t122 35.5h66v17q0 58 -69 58 q-53 0 -69 -46z" horiz-adv-x="449" glyph-name="ordfeminine" unicode="ª"/>
<glyph d="M653 51l-309 218v82l309 218v-128l-185 -131l185 -131v-128zM353 51l-309 218v82l309 218v-128l-185 -131l185 -131v-128z" horiz-adv-x="703" glyph-name="guillemotleft" unicode="«"/>
<glyph d="M402 295h-342v112h466v-265h-124v153z" horiz-adv-x="596" glyph-name="logicalnot" unicode="¬"/>
<glyph d="M438 263h-373v108h373v-108z" horiz-adv-x="503" glyph-name="uni00AD" unicode="­"/>
<glyph d="M448 480h-54v-78h54q48 0 48 39t-48 39zM628 137h-113l-109 182h-12v-182h-105v426h169q140 0 140 -122q0 -99 -87 -117zM247 554q-77 -80 -77 -204t77 -204t198 -80t198 80t77 204t-77 204t-198 80t-198 -80zM170 72q-110 113 -110 278t110 278q111 112 275 112 q165 0 274 -112q111 -113 111 -278t-111 -278q-109 -112 -274 -112q-164 0 -275 112z" horiz-adv-x="890" glyph-name="registered" unicode="®"/>
<glyph d="M278 618h-269v110h269v-110z" horiz-adv-x="287" glyph-name="overscore" unicode="¯"/>
<glyph d="M153 622q-10 -13 -10 -29t10 -29q11 -11 29 -11q20 0 28 11q11 11 11 29t-11 29q-8 11 -28 11q-18 0 -29 -11zM95 506q-35 35 -35 87q0 51 35 86t87 35t87 -35t35 -86q0 -52 -35 -87q-34 -34 -87 -34t-87 34z" horiz-adv-x="364" glyph-name="degree" unicode="°"/>
<glyph d="M534 0h-476v108h476v-108zM242 453v184h108v-184h184v-108h-184v-184h-108v184h-184v108h184z" horiz-adv-x="591" glyph-name="plusminus" unicode="±"/>
<glyph d="M324 300h-271v35l145 177q27 32 27 68q0 41 -38 41q-40 0 -51 -53l-80 23q6 50 42.5 81.5t88.5 31.5q60 0 95.5 -33t35.5 -89q0 -50 -40 -99l-82 -100h128v-83z" horiz-adv-x="379" glyph-name="uni00B2" unicode="²"/>
<glyph d="M53 422l80 10q11 -53 58 -53q49 0 49 59q0 53 -48 53q-18 0 -37 -10l-40 50l66 86h-110v83h237v-35l-89 -114q48 0 81 -34t33 -82q0 -65 -36 -102t-104 -37q-59 0 -98 35.5t-42 90.5z" horiz-adv-x="388" glyph-name="uni00B3" unicode="³"/>
<glyph d="M110 560h-95l64 148h168z" horiz-adv-x="260" glyph-name="acute" unicode="´"/>
<glyph d="M507 504v-504h-124v81q-62 -89 -156 -89q-16 0 -31 3v-199h-124v708h124v-323q0 -83 72 -83q49 0 82 56t33 149v201h124z" horiz-adv-x="587" glyph-name="mu" unicode="µ"/>
<glyph d="M507 504v-504h-124v81q-62 -89 -156 -89q-16 0 -31 3v-199h-124v708h124v-323q0 -83 72 -83q49 0 82 56t33 149v201h124z" horiz-adv-x="587" glyph-name="mu" unicode="μ"/>
<glyph d="M281 700h403v-108h-62v-796h-120v796h-101v-796h-120v450q-93 0 -161 66q-66 68 -66 161q0 94 66 160q67 67 161 67z" horiz-adv-x="744" glyph-name="paragraph" unicode="¶"/>
<glyph d="M104 308q-24 24 -24 60t24 60t60 24t60 -24t24 -60t-24 -60t-60 -24t-60 24z" horiz-adv-x="328" glyph-name="middot" unicode="·"/>
<glyph d="M146 -60h90l-83 -206l-148 66z" horiz-adv-x="241" glyph-name="cedilla" unicode="¸"/>
<glyph d="M52 635l137 65h37v-400h-89v278l-85 -38v95z" horiz-adv-x="306" glyph-name="uni00B9" unicode="¹"/>
<glyph d="M188 586q-26 -35 -26 -86t26 -86q27 -35 73 -35t72 35q27 34 27 86t-27 86q-26 35 -72 35t-73 -35zM114 353q-54 59 -54 147q0 89 54 146q54 58 147 58t147 -58q54 -57 54 -146q0 -88 -54 -147q-54 -57 -147 -57t-147 57z" horiz-adv-x="522" glyph-name="ordmasculine" unicode="º"/>
<glyph d="M50 569l309 -218v-82l-309 -218v128l185 131l-185 131v128zM350 569l309 -218v-82l-309 -218v128l185 131l-185 131v128z" horiz-adv-x="703" glyph-name="guillemotright" unicode="»"/>
<glyph d="M651 270l-63 -122h63v122zM740 0h-89v65h-167v45l161 290h95v-252h43v-83h-43v-65zM70 635l137 65h37v-400h-89v278l-85 -38v95zM131 20l538 718l72 -57l-538 -719z" horiz-adv-x="863" glyph-name="onequarter" unicode="¼"/>
<glyph d="M838 0h-271v35l145 177q27 31 27 68q0 41 -38 41q-40 0 -51 -53l-80 23q6 50 42.5 81.5t88.5 31.5q60 0 95.5 -33t35.5 -89q0 -50 -40 -99l-82 -100h128v-83zM70 635l137 65h37v-400h-89v278l-85 -38v95zM131 20l538 718l72 -57l-538 -719z" horiz-adv-x="918" glyph-name="onehalf" unicode="½"/>
<glyph d="M654 270l-63 -122h63v122zM743 0h-89v65h-167v45l161 290h95v-252h43v-83h-43v-65zM53 422l80 10q11 -53 58 -53q49 0 49 59q0 53 -48 53q-18 0 -37 -10l-40 50l66 86h-110v83h237v-35l-89 -114q48 0 81 -34t33 -82q0 -65 -36 -102t-104 -37q-59 0 -98 35.5t-42 90.5z M153 20l538 718l72 -57l-538 -719z" horiz-adv-x="841" glyph-name="threequarters" unicode="¾"/>
<glyph d="M318 420q0 -35 -24.5 -59.5t-58.5 -24.5t-58.5 24.5t-24.5 59.5q0 34 24 58t59 24t59 -24t24 -58zM178 147l-88 33q17 49 54.5 76t90.5 27q61 0 99.5 -35.5t38.5 -92.5q0 -89 -108 -130q-57 -21 -78.5 -39.5t-21.5 -43.5q0 -24 17.5 -37t47.5 -13q66 0 85 67l109 -18 q-12 -68 -63.5 -110.5t-127.5 -42.5q-84 0 -134.5 43t-50.5 115q0 55 32 87q32 30 106 59q51 21 68 33.5t17 32.5q0 15 -10.5 25t-25.5 10q-41 0 -57 -46z" horiz-adv-x="472" glyph-name="questiondown" unicode="¿"/>
<glyph d="M150 904h168l64 -148h-95zM381 285l-74 243l-74 -243h148zM609 0h-140l-51 165h-222l-51 -165h-140l237 700h130z" horiz-adv-x="614" glyph-name="Agrave" unicode="À"/>
<glyph d="M316 756h-95l64 148h168zM381 285l-74 243l-74 -243h148zM609 0h-140l-51 165h-222l-51 -165h-140l237 700h130z" horiz-adv-x="614" glyph-name="Aacute" unicode="Á"/>
<glyph d="M239 762h-120l171 186h34l171 -186h-120l-68 74zM381 285l-74 243l-74 -243h148zM609 0h-140l-51 165h-222l-51 -165h-140l237 700h130z" horiz-adv-x="614" glyph-name="Acircumflex" unicode="Â"/>
<glyph d="M180 765l-65 55q17 39 51 63t72 24q36 0 73 -21q38 -20 60 -20q33 0 64 43l65 -55q-17 -39 -51 -63t-72 -24q-35 0 -73 20q-38 21 -60 21q-33 0 -64 -43zM381 285l-74 243l-74 -243h148zM609 0h-140l-51 165h-222l-51 -165h-140l237 700h130z" horiz-adv-x="614" glyph-name="Atilde" unicode="Ã"/>
<glyph d="M360 796q-20 20 -20 51t20 51t51 20t51 -20t20 -51t-20 -51t-51 -20t-51 20zM153 796q-20 20 -20 51t20 51t51 20t51 -20t20 -51t-20 -51t-51 -20t-51 20zM381 285l-74 243l-74 -243h148zM609 0h-140l-51 165h-222l-51 -165h-140l237 700h130z" horiz-adv-x="614" glyph-name="Adieresis" unicode="Ä"/>
<glyph d="M307 883q-30 0 -30 -32t30 -32t30 32t-30 32zM233 778q-29 29 -29 73t29 73t74 29t74 -29t29 -73t-29 -73t-74 -29t-74 29zM381 285l-74 243l-74 -243h148zM609 0h-140l-51 165h-222l-51 -165h-140l237 700h130z" horiz-adv-x="614" glyph-name="Aring" unicode="Å"/>
<glyph d="M374 528h-13l-98 -243h111v243zM8 0l306 700h493v-120h-303v-147h243v-120h-243v-193h313v-120h-443v165h-160l-66 -165h-140z" horiz-adv-x="859" glyph-name="AE" unicode="Æ"/>
<glyph d="M374 -60h90l-83 -206l-148 66zM669 496l-117 -30q-47 122 -173 122q-86 0 -143 -61q-56 -62 -56 -177t56 -177q57 -61 143 -61q126 0 173 122l117 -30q-25 -101 -100.5 -156.5t-189.5 -55.5q-138 0 -235 95q-96 95 -96 263t96 263q97 95 235 95q114 0 189.5 -55.5 t100.5 -156.5z" horiz-adv-x="700" glyph-name="Ccedilla" unicode="Ç"/>
<glyph d="M158 904h168l64 -148h-95zM90 0v700h433v-120h-303v-147h243v-120h-243v-193h313v-120h-443z" horiz-adv-x="575" glyph-name="Egrave" unicode="È"/>
<glyph d="M313 756h-95l64 148h168zM90 0v700h433v-120h-303v-147h243v-120h-243v-193h313v-120h-443z" horiz-adv-x="575" glyph-name="Eacute" unicode="É"/>
<glyph d="M244 762h-120l171 186h34l171 -186h-120l-68 74zM90 0v700h433v-120h-303v-147h243v-120h-243v-193h313v-120h-443z" horiz-adv-x="575" glyph-name="Ecircumflex" unicode="Ê"/>
<glyph d="M366 796q-20 20 -20 51t20 51t51 20t51 -20t20 -51t-20 -51t-51 -20t-51 20zM159 796q-20 20 -20 51t20 51t51 20t51 -20t20 -51t-20 -51t-51 -20t-51 20zM90 0v700h433v-120h-303v-147h243v-120h-243v-193h313v-120h-443z" horiz-adv-x="575" glyph-name="Edieresis" unicode="Ë"/>
<glyph d="M-1 904h168l64 -148h-95zM90 700h130v-700h-130v700z" horiz-adv-x="310" glyph-name="Igrave" unicode="Ì"/>
<glyph d="M174 756h-95l64 148h168zM90 700h130v-700h-130v700z" horiz-adv-x="310" glyph-name="Iacute" unicode="Í"/>
<glyph d="M87 762h-120l171 186h34l171 -186h-120l-68 74zM90 700h130v-700h-130v700z" horiz-adv-x="310" glyph-name="Icircumflex" unicode="Î"/>
<glyph d="M208 796q-20 20 -20 51t20 51t51 20t51 -20t20 -51t-20 -51t-51 -20t-51 20zM1 796q-20 20 -20 51t20 51t51 20t51 -20t20 -51t-20 -51t-51 -20t-51 20zM90 700h130v-700h-130v700z" horiz-adv-x="310" glyph-name="Idieresis" unicode="Ï"/>
<glyph d="M293 580h-48v-176h93v-108h-93v-176h48q92 0 158 45q77 51 77 185t-77 185q-66 45 -158 45zM115 296h-93v108h93v296h219q64 0 121 -21t103.5 -62t74 -110t27.5 -157t-27.5 -157t-74 -110t-103.5 -62t-121 -21h-219v296z" horiz-adv-x="708" glyph-name="Eth" unicode="Ð"/>
<glyph d="M219 765l-65 55q17 39 51 63t72 24q35 0 73 -21q38 -20 60 -20q33 0 64 43l65 -55q-17 -39 -51 -63t-72 -24q-35 0 -73 20q-37 21 -60 21q-33 0 -64 -43zM484 238v462h130v-700h-137l-257 462v-462h-130v700h137z" horiz-adv-x="704" glyph-name="Ntilde" unicode="Ñ"/>
<glyph d="M212 904h168l64 -148h-95zM519 528q-55 60 -141 60q-85 0 -142 -60q-56 -61 -56 -178t56 -178q57 -60 142 -60q86 0 141 60q57 60 57 178t-57 178zM214 670q74 38 164 38q196 0 283 -158q47 -83 47 -200q0 -114 -45.5 -197.5t-120.5 -123.5q-73 -37 -164 -37 q-194 0 -284 158q-46 82 -46 200q0 114 45.5 198t120.5 122z" horiz-adv-x="756" glyph-name="Ograve" unicode="Ò"/>
<glyph d="M387 756h-95l64 148h168zM519 528q-55 60 -141 60q-85 0 -142 -60q-56 -61 -56 -178t56 -178q57 -60 142 -60q86 0 141 60q57 60 57 178t-57 178zM214 670q74 38 164 38q196 0 283 -158q47 -83 47 -200q0 -114 -45.5 -197.5t-120.5 -123.5q-73 -37 -164 -37 q-194 0 -284 158q-46 82 -46 200q0 114 45.5 198t120.5 122z" horiz-adv-x="756" glyph-name="Oacute" unicode="Ó"/>
<glyph d="M310 762h-120l171 186h34l171 -186h-120l-68 74zM519 528q-55 60 -141 60q-85 0 -142 -60q-56 -61 -56 -178t56 -178q57 -60 142 -60q86 0 141 60q57 60 57 178t-57 178zM214 670q74 38 164 38q196 0 283 -158q47 -83 47 -200q0 -114 -45.5 -197.5t-120.5 -123.5 q-73 -37 -164 -37q-194 0 -284 158q-46 82 -46 200q0 114 45.5 198t120.5 122z" horiz-adv-x="756" glyph-name="Ocircumflex" unicode="Ô"/>
<glyph d="M251 765l-65 55q17 39 51 63t72 24q35 0 73 -21q38 -20 60 -20q33 0 64 43l65 -55q-17 -39 -51 -63t-72 -24q-35 0 -73 20q-37 21 -60 21q-33 0 -64 -43zM519 528q-55 60 -141 60q-85 0 -142 -60q-56 -61 -56 -178t56 -178q57 -60 142 -60q86 0 141 60q57 60 57 178 t-57 178zM214 670q74 38 164 38q196 0 283 -158q47 -83 47 -200q0 -114 -45.5 -197.5t-120.5 -123.5q-73 -37 -164 -37q-194 0 -284 158q-46 82 -46 200q0 114 45.5 198t120.5 122z" horiz-adv-x="756" glyph-name="Otilde" unicode="Õ"/>
<glyph d="M431 796q-20 20 -20 51t20 51t51 20t51 -20t20 -51t-20 -51t-51 -20t-51 20zM224 796q-20 20 -20 51t20 51t51 20t51 -20t20 -51t-20 -51t-51 -20t-51 20zM519 528q-55 60 -141 60q-85 0 -142 -60q-56 -61 -56 -178t56 -178q57 -60 142 -60q86 0 141 60q57 60 57 178 t-57 178zM214 670q74 38 164 38q196 0 283 -158q47 -83 47 -200q0 -114 -45.5 -197.5t-120.5 -123.5q-73 -37 -164 -37q-194 0 -284 158q-46 82 -46 200q0 114 45.5 198t120.5 122z" horiz-adv-x="756" glyph-name="Odieresis" unicode="Ö"/>
<glyph d="M371 317l159 -158l-77 -77l-158 159l-158 -159l-77 77l159 158l-159 158l77 77l158 -159l158 159l77 -77z" horiz-adv-x="590" glyph-name="multiply" unicode="×"/>
<glyph d="M378 588q-85 0 -142 -60q-56 -61 -56 -178q0 -78 27 -134l269 347q-43 25 -98 25zM576 350q0 78 -27 134l-269 -347q43 -25 98 -25q86 0 141 60q57 60 57 178zM553 663l61 78l86 -63l-66 -85q74 -94 74 -243q0 -117 -47 -200q-87 -158 -283 -158q-98 0 -175 45l-61 -78 l-86 63l66 85q-74 94 -74 243q0 118 46 200q90 158 284 158q98 0 175 -45z" horiz-adv-x="756" glyph-name="Oslash" unicode="Ø"/>
<glyph d="M168 904h168l64 -148h-95zM459 700h130v-434q0 -133 -69.5 -203.5t-191.5 -70.5t-191.5 70.5t-69.5 203.5v434h130v-436q0 -152 131 -152t131 152v436z" horiz-adv-x="656" glyph-name="Ugrave" unicode="Ù"/>
<glyph d="M349 756h-95l64 148h168zM459 700h130v-434q0 -133 -69.5 -203.5t-191.5 -70.5t-191.5 70.5t-69.5 203.5v434h130v-436q0 -152 131 -152t131 152v436z" horiz-adv-x="656" glyph-name="Uacute" unicode="Ú"/>
<glyph d="M260 762h-120l171 186h34l171 -186h-120l-68 74zM459 700h130v-434q0 -133 -69.5 -203.5t-191.5 -70.5t-191.5 70.5t-69.5 203.5v434h130v-436q0 -152 131 -152t131 152v436z" horiz-adv-x="656" glyph-name="Ucircumflex" unicode="Û"/>
<glyph d="M381 796q-20 20 -20 51t20 51t51 20t51 -20t20 -51t-20 -51t-51 -20t-51 20zM174 796q-20 20 -20 51t20 51t51 20t51 -20t20 -51t-20 -51t-51 -20t-51 20zM459 700h130v-434q0 -133 -69.5 -203.5t-191.5 -70.5t-191.5 70.5t-69.5 203.5v434h130v-436q0 -152 131 -152 t131 152v436z" horiz-adv-x="656" glyph-name="Udieresis" unicode="Ü"/>
<glyph d="M286 756h-95l64 148h168zM202 298l-202 402h140l127 -272l127 272h140l-202 -402v-298h-130v298z" horiz-adv-x="534" glyph-name="Yacute" unicode="Ý"/>
<glyph d="M220 257h129q92 0 92 93t-92 93h-129v-186zM354 137h-134v-137h-130v700h130v-137h134q105 0 162 -57.5t57 -155.5t-57 -155.5t-162 -57.5z" horiz-adv-x="592" glyph-name="Thorn" unicode="Þ"/>
<glyph d="M84 326h-52v112h52v62q0 98 54.5 153t146.5 55q90 0 140 -47.5t50 -129.5q0 -47 -22.5 -82.5t-57.5 -47.5q61 -16 98.5 -63.5t37.5 -118.5q0 -227 -223 -227q-33 0 -65 8v108q43 -8 63 -8q105 0 105 112q0 114 -120 114h-33v112h20q84 0 84 82q0 39 -20.5 60.5 t-56.5 21.5q-37 0 -59 -26t-22 -73v-503h-120v326z" horiz-adv-x="570" glyph-name="germandbls" unicode="ß"/>
<glyph d="M102 708h168l64 -148h-95zM168 147q0 -21 14 -35t38 -14q46 0 81 29q36 29 36 75v10h-83q-86 0 -86 -65zM162 348l-105 24q12 63 64.5 101.5t127.5 38.5q212 0 212 -211v-301h-102l-13 64q-58 -72 -155 -72q-68 0 -110.5 41t-42.5 112q0 75 59.5 120t155.5 45h84v22 q0 74 -88 74q-68 0 -87 -58z" horiz-adv-x="514" glyph-name="agrave" unicode="à"/>
<glyph d="M268 560h-95l64 148h168zM168 147q0 -21 14 -35t38 -14q46 0 81 29q36 29 36 75v10h-83q-86 0 -86 -65zM162 348l-105 24q12 63 64.5 101.5t127.5 38.5q212 0 212 -211v-301h-102l-13 64q-58 -72 -155 -72q-68 0 -110.5 41t-42.5 112q0 75 59.5 120t155.5 45h84v22 q0 74 -88 74q-68 0 -87 -58z" horiz-adv-x="514" glyph-name="aacute" unicode="á"/>
<glyph d="M188 566h-120l171 186h34l171 -186h-120l-68 74zM168 147q0 -21 14 -35t38 -14q46 0 81 29q36 29 36 75v10h-83q-86 0 -86 -65zM162 348l-105 24q12 63 64.5 101.5t127.5 38.5q212 0 212 -211v-301h-102l-13 64q-58 -72 -155 -72q-68 0 -110.5 41t-42.5 112 q0 75 59.5 120t155.5 45h84v22q0 74 -88 74q-68 0 -87 -58z" horiz-adv-x="514" glyph-name="acircumflex" unicode="â"/>
<glyph d="M131 569l-65 55q17 39 51 63t72 24q36 0 73 -21q38 -20 60 -20q33 0 64 43l65 -55q-17 -39 -51 -63t-72 -24q-35 0 -73 20q-37 21 -60 21q-33 0 -64 -43zM168 147q0 -21 14 -35t38 -14q46 0 81 29q36 29 36 75v10h-83q-86 0 -86 -65zM162 348l-105 24q12 63 64.5 101.5 t127.5 38.5q212 0 212 -211v-301h-102l-13 64q-58 -72 -155 -72q-68 0 -110.5 41t-42.5 112q0 75 59.5 120t155.5 45h84v22q0 74 -88 74q-68 0 -87 -58z" horiz-adv-x="514" glyph-name="atilde" unicode="ã"/>
<glyph d="M306 600q-20 20 -20 51t20 51t51 20t51 -20t20 -51t-20 -51t-51 -20t-51 20zM99 600q-20 20 -20 51t20 51t51 20t51 -20t20 -51t-20 -51t-51 -20t-51 20zM168 147q0 -21 14 -35t38 -14q46 0 81 29q36 29 36 75v10h-83q-86 0 -86 -65zM162 348l-105 24q12 63 64.5 101.5 t127.5 38.5q212 0 212 -211v-301h-102l-13 64q-58 -72 -155 -72q-68 0 -110.5 41t-42.5 112q0 75 59.5 120t155.5 45h84v22q0 74 -88 74q-68 0 -87 -58z" horiz-adv-x="514" glyph-name="adieresis" unicode="ä"/>
<glyph d="M251 687q-30 0 -30 -32t30 -32t30 32t-30 32zM177 582q-29 29 -29 73t29 73t74 29t74 -29t29 -73t-29 -73t-74 -29t-74 29zM168 147q0 -21 14 -35t38 -14q46 0 81 29q36 29 36 75v10h-83q-86 0 -86 -65zM162 348l-105 24q12 63 64.5 101.5t127.5 38.5q212 0 212 -211 v-301h-102l-13 64q-58 -72 -155 -72q-68 0 -110.5 41t-42.5 112q0 75 59.5 120t155.5 45h84v22q0 74 -88 74q-68 0 -87 -58z" horiz-adv-x="514" glyph-name="aring" unicode="å"/>
<glyph d="M579 406q-43 0 -73 -27.5t-37 -68.5h218q-21 96 -108 96zM168 147q0 -21 14 -35t38 -14q46 0 81 29q36 29 36 75v10h-83q-86 0 -86 -65zM814 263v-51h-347q2 -48 34.5 -81t84.5 -33q77 0 122 78l100 -37q-64 -147 -229 -147q-133 0 -200 105q-70 -105 -188 -105 q-68 0 -110.5 41t-42.5 112q0 75 59.5 120t155.5 45h84v22q0 74 -88 74q-68 0 -87 -58l-105 24q12 63 64.5 101.5t127.5 38.5q114 0 166 -61q64 61 164 61q59 0 106 -22.5t75 -61.5q54 -74 54 -165z" horiz-adv-x="850" glyph-name="ae" unicode="æ"/>
<glyph d="M283 -60h90l-83 -206l-148 66zM407 181l111 -45q-58 -144 -229 -144q-117 0 -182 74q-64 73 -64 186t64 186q65 74 182 74q171 0 229 -144l-111 -45q-41 83 -118 83q-56 0 -86 -41.5t-30 -112.5t30 -112.5t86 -41.5q77 0 118 83z" horiz-adv-x="551" glyph-name="ccedilla" unicode="ç"/>
<glyph d="M120 708h168l64 -148h-95zM285 406q-43 0 -72.5 -27.5t-36.5 -68.5h217q-21 96 -108 96zM520 263v-51h-347q2 -48 34.5 -81t84.5 -33q77 0 122 78l100 -37q-64 -147 -229 -147q-62 0 -110.5 23.5t-76 62t-41.5 83t-14 91.5t14 91.5t41.5 83t76 62t110.5 23.5 q59 0 106 -22.5t75 -61.5q54 -74 54 -165z" horiz-adv-x="556" glyph-name="egrave" unicode="è"/>
<glyph d="M293 560h-95l64 148h168zM285 406q-43 0 -72.5 -27.5t-36.5 -68.5h217q-21 96 -108 96zM520 263v-51h-347q2 -48 34.5 -81t84.5 -33q77 0 122 78l100 -37q-64 -147 -229 -147q-62 0 -110.5 23.5t-76 62t-41.5 83t-14 91.5t14 91.5t41.5 83t76 62t110.5 23.5 q59 0 106 -22.5t75 -61.5q54 -74 54 -165z" horiz-adv-x="556" glyph-name="eacute" unicode="é"/>
<glyph d="M217 566h-120l171 186h34l171 -186h-120l-68 74zM285 406q-43 0 -72.5 -27.5t-36.5 -68.5h217q-21 96 -108 96zM520 263v-51h-347q2 -48 34.5 -81t84.5 -33q77 0 122 78l100 -37q-64 -147 -229 -147q-62 0 -110.5 23.5t-76 62t-41.5 83t-14 91.5t14 91.5t41.5 83t76 62 t110.5 23.5q59 0 106 -22.5t75 -61.5q54 -74 54 -165z" horiz-adv-x="556" glyph-name="ecircumflex" unicode="ê"/>
<glyph d="M338 600q-20 20 -20 51t20 51t51 20t51 -20t20 -51t-20 -51t-51 -20t-51 20zM131 600q-20 20 -20 51t20 51t51 20t51 -20t20 -51t-20 -51t-51 -20t-51 20zM285 406q-43 0 -72.5 -27.5t-36.5 -68.5h217q-21 96 -108 96zM520 263v-51h-347q2 -48 34.5 -81t84.5 -33 q77 0 122 78l100 -37q-64 -147 -229 -147q-62 0 -110.5 23.5t-76 62t-41.5 83t-14 91.5t14 91.5t41.5 83t76 62t110.5 23.5q59 0 106 -22.5t75 -61.5q54 -74 54 -165z" horiz-adv-x="556" glyph-name="edieresis" unicode="ë"/>
<glyph d="M-16 708h168l64 -148h-95zM68 0v504h124v-504h-124z" horiz-adv-x="260" glyph-name="igrave" unicode="ì"/>
<glyph d="M139 560h-95l64 148h168zM68 0v504h124v-504h-124z" horiz-adv-x="260" glyph-name="iacute" unicode="í"/>
<glyph d="M63 566h-120l171 186h34l171 -186h-120l-68 74zM68 0v504h124v-504h-124z" horiz-adv-x="260" glyph-name="icircumflex" unicode="î"/>
<glyph d="M183 600q-20 20 -20 51t20 51t51 20t51 -20t20 -51t-20 -51t-51 -20t-51 20zM-24 600q-20 20 -20 51t20 51t51 20t51 -20t20 -51t-20 -51t-51 -20t-51 20zM68 0v504h124v-504h-124z" horiz-adv-x="260" glyph-name="idieresis" unicode="ï"/>
<glyph d="M411 252q-1 68 -32.5 111t-86.5 43q-56 0 -87.5 -43t-31.5 -111t31.5 -111t87.5 -43t87.5 43t31.5 111zM291 581l-32 -47l-75 53l29 42q-48 25 -86 39l62 91q45 -19 84 -42l33 48l76 -52l-32 -47q98 -70 144.5 -164t46.5 -226q0 -128 -66 -206q-65 -78 -183 -78t-184 73 q-65 74 -65 187t65 187q66 73 184 73q43 0 81 -20q-28 51 -82 89z" horiz-adv-x="584" glyph-name="eth" unicode="ð"/>
<glyph d="M178 569l-65 55q17 39 51 63t72 24q36 0 73 -21q38 -20 60 -20q33 0 64 43l65 -55q-17 -39 -51 -63t-72 -24q-35 0 -73 20q-38 21 -60 21q-33 0 -64 -43zM80 0v504h124v-81q62 89 156 89q71 0 113 -39.5t42 -112.5v-360h-124v323q0 83 -72 83q-49 0 -82 -56t-33 -149 v-201h-124z" horiz-adv-x="587" glyph-name="ntilde" unicode="ñ"/>
<glyph d="M143 708h168l64 -148h-95zM207 361q-34 -43 -34 -109t34 -110q35 -44 92 -44t92 44q34 44 34 110t-34 109q-35 45 -92 45t-92 -45zM112 65q-69 73 -69 187q0 112 69 186t187 74t187 -74t69 -186q0 -114 -69 -187t-187 -73t-187 73z" horiz-adv-x="598" glyph-name="ograve" unicode="ò"/>
<glyph d="M308 560h-95l64 148h168zM207 361q-34 -43 -34 -109t34 -110q35 -44 92 -44t92 44q34 44 34 110t-34 109q-35 45 -92 45t-92 -45zM112 65q-69 73 -69 187q0 112 69 186t187 74t187 -74t69 -186q0 -114 -69 -187t-187 -73t-187 73z" horiz-adv-x="598" glyph-name="oacute" unicode="ó"/>
<glyph d="M231 566h-120l171 186h34l171 -186h-120l-68 74zM207 361q-34 -43 -34 -109t34 -110q35 -44 92 -44t92 44q34 44 34 110t-34 109q-35 45 -92 45t-92 -45zM112 65q-69 73 -69 187q0 112 69 186t187 74t187 -74t69 -186q0 -114 -69 -187t-187 -73t-187 73z" horiz-adv-x="598" glyph-name="ocircumflex" unicode="ô"/>
<glyph d="M172 569l-65 55q17 39 51 63t72 24q36 0 73 -21q38 -20 60 -20q33 0 64 43l65 -55q-17 -39 -51 -63t-72 -24q-35 0 -73 20q-38 21 -60 21q-33 0 -64 -43zM207 361q-34 -43 -34 -109t34 -110q35 -44 92 -44t92 44q34 44 34 110t-34 109q-35 45 -92 45t-92 -45zM112 65 q-69 73 -69 187q0 112 69 186t187 74t187 -74t69 -186q0 -114 -69 -187t-187 -73t-187 73z" horiz-adv-x="598" glyph-name="otilde" unicode="õ"/>
<glyph d="M352 600q-20 20 -20 51t20 51t51 20t51 -20t20 -51t-20 -51t-51 -20t-51 20zM145 600q-20 20 -20 51t20 51t51 20t51 -20t20 -51t-20 -51t-51 -20t-51 20zM207 361q-34 -43 -34 -109t34 -110q35 -44 92 -44t92 44q34 44 34 110t-34 109q-35 45 -92 45t-92 -45zM112 65 q-69 73 -69 187q0 112 69 186t187 74t187 -74t69 -186q0 -114 -69 -187t-187 -73t-187 73z" horiz-adv-x="598" glyph-name="odieresis" unicode="ö"/>
<glyph d="M518 261h-476v108h476v-108zM220 446q-24 24 -24 60t24 60t60 24t60 -24t24 -60t-24 -60t-60 -24t-60 24zM220 64q-24 24 -24 60t24 60t60 24t60 -24t24 -60t-24 -60t-60 -24t-60 24z" horiz-adv-x="560" glyph-name="divide" unicode="÷"/>
<glyph d="M173 252q0 -36 10 -62l162 207q-21 9 -46 9q-57 0 -92 -45q-34 -43 -34 -109zM425 252q0 36 -10 62l-162 -207q21 -9 46 -9q57 0 92 44q34 44 34 110zM43 252q0 112 69 186t187 74q65 0 117 -24l60 76l86 -63l-62 -79q55 -68 55 -170q0 -114 -69 -187t-187 -73 q-65 0 -117 24l-60 -76l-86 63l62 79q-55 68 -55 170z" horiz-adv-x="598" glyph-name="oslash" unicode="ø"/>
<glyph d="M121 708h168l64 -148h-95zM507 504v-504h-124v81q-62 -89 -156 -89q-71 0 -113 39.5t-42 112.5v360h124v-323q0 -83 72 -83q49 0 82 56t33 149v201h124z" horiz-adv-x="587" glyph-name="ugrave" unicode="ù"/>
<glyph d="M317 560h-95l64 148h168zM507 504v-504h-124v81q-62 -89 -156 -89q-71 0 -113 39.5t-42 112.5v360h124v-323q0 -83 72 -83q49 0 82 56t33 149v201h124z" horiz-adv-x="587" glyph-name="uacute" unicode="ú"/>
<glyph d="M223 566h-120l171 186h34l171 -186h-120l-68 74zM507 504v-504h-124v81q-62 -89 -156 -89q-71 0 -113 39.5t-42 112.5v360h124v-323q0 -83 72 -83q49 0 82 56t33 149v201h124z" horiz-adv-x="587" glyph-name="ucircumflex" unicode="û"/>
<glyph d="M351 600q-20 20 -20 51t20 51t51 20t51 -20t20 -51t-20 -51t-51 -20t-51 20zM144 600q-20 20 -20 51t20 51t51 20t51 -20t20 -51t-20 -51t-51 -20t-51 20zM507 504v-504h-124v81q-62 -89 -156 -89q-71 0 -113 39.5t-42 112.5v360h124v-323q0 -83 72 -83q49 0 82 56 t33 149v201h124z" horiz-adv-x="587" glyph-name="udieresis" unicode="ü"/>
<glyph d="M262 560h-95l64 148h168zM186 32l-183 472h125l117 -316l110 316h124l-260 -708h-120z" horiz-adv-x="481" glyph-name="yacute" unicode="ý"/>
<glyph d="M393 139q33 40 33 113q0 72 -33 113t-84 41t-84 -41q-32 -41 -32 -113q0 -73 32 -114q33 -40 84 -40t84 41zM326 -8q-40 0 -74.5 18.5t-47.5 41.5v-256h-124v912h124v-250q18 23 52 38.5t70 15.5q110 0 170 -69.5t60 -190.5t-60 -190.5t-170 -69.5z" horiz-adv-x="599" glyph-name="thorn" unicode="þ"/>
<glyph d="M296 600q-20 20 -20 51t20 51t51 20t51 -20t20 -51t-20 -51t-51 -20t-51 20zM89 600q-20 20 -20 51t20 51t51 20t51 -20t20 -51t-20 -51t-51 -20t-51 20zM186 32l-183 472h125l117 -316l110 316h124l-260 -708h-120z" horiz-adv-x="481" glyph-name="ydieresis" unicode="ÿ"/>
<glyph d="M68 0v504h124v-504h-124z" horiz-adv-x="260" glyph-name="dotlessi" unicode="ı"/>
<glyph d="M110 360v340h130v-268l101 56l53 -95l-154 -85v-188h297v-120h-427v236l-54 -30l-53 95z" horiz-adv-x="551" glyph-name="Lslash" unicode="Ł"/>
<glyph d="M120 391v317h124v-249l49 27l53 -95l-102 -56v-335h-124v267l-49 -26l-53 95z" horiz-adv-x="368" glyph-name="lslash" unicode="ł"/>
<glyph d="M520 528q-57 60 -142 60t-142 -60q-56 -61 -56 -178t56 -178q57 -60 142 -60t142 60t57 178t-57 178zM577 647v53h433v-120h-303v-147h243v-120h-243v-193h313v-120h-443v52q-84 -60 -199 -60q-91 0 -164 37q-75 40 -120.5 123.5t-45.5 197.5q0 118 46 200 q90 158 284 158q117 0 199 -61z" horiz-adv-x="1062" glyph-name="OE" unicode="Œ"/>
<glyph d="M667 406q-43 0 -72.5 -27.5t-36.5 -68.5h217q-21 96 -108 96zM425 252q0 63 -35 109q-35 45 -91 45q-57 0 -92 -45q-34 -43 -34 -109t34 -110q35 -44 92 -44t92 44q34 44 34 110zM902 263v-51h-347q2 -48 34.5 -81t84.5 -33q77 0 122 78l100 -37q-64 -147 -229 -147 q-113 0 -179 76q-70 -76 -189 -76q-118 0 -187 73t-69 187q0 112 69 186t187 74q120 0 190 -76q66 76 178 76q59 0 106 -22.5t75 -61.5q54 -74 54 -165z" horiz-adv-x="938" glyph-name="oe" unicode="œ"/>
<glyph d="M285 762h-34l-171 186h120l68 -74l68 74h120zM470 581l-105 -67q-38 74 -97 74q-29 0 -48 -18t-19 -46q0 -54 105 -104q42 -18 67.5 -32t59 -39.5t50.5 -59.5t17 -77q0 -102 -60.5 -161t-163.5 -59q-91 0 -158 56q-66 57 -83 140l105 66q40 -142 139 -142q91 0 91 91 q0 54 -104 98q-39 17 -65.5 31.5t-58.5 40t-48.5 61t-16.5 80.5q0 84 54 139q55 55 137 55q142 0 202 -127z" horiz-adv-x="537" glyph-name="Scaron" unicode="Š"/>
<glyph d="M249 566h-34l-171 186h120l68 -74l68 74h120zM231 512q49 0 91.5 -22.5t66.5 -59.5l-74 -68q-35 44 -84 44q-20 0 -33 -11t-13 -31q0 -31 48 -49l36 -13l43 -15q7 -3 36 -19q27 -14 36 -26q31 -35 31 -82q0 -69 -50 -119q-49 -49 -129 -49q-72 0 -125 41q-52 40 -75 95 l99 53q30 -83 101 -83q62 0 62 54q0 25 -27 38q-12 7 -28 12q-9 4 -36 14t-35 13q-51 22 -76.5 53t-25.5 83q0 61 45 104q44 43 116 43z" horiz-adv-x="462" glyph-name="scaron" unicode="š"/>
<glyph d="M320 796q-20 20 -20 51t20 51t51 20t51 -20t20 -51t-20 -51t-51 -20t-51 20zM113 796q-20 20 -20 51t20 51t51 20t51 -20t20 -51t-20 -51t-51 -20t-51 20zM202 298l-202 402h140l127 -272l127 272h140l-202 -402v-298h-130v298z" horiz-adv-x="534" glyph-name="Ydieresis" unicode="Ÿ"/>
<glyph d="M306 762h-34l-171 186h120l68 -74l68 74h120zM333 580h-286v120h464v-60l-300 -520h314v-120h-495v60z" horiz-adv-x="558" glyph-name="Zcaron" unicode="Ž"/>
<glyph d="M258 566h-34l-171 186h120l68 -74l68 74h120zM259 398h-202v106h356v-48l-216 -350h230v-106h-386v48z" horiz-adv-x="465" glyph-name="zcaron" unicode="ž"/>
<glyph d="M183 398h-79l21 106h80l5 26q17 88 71 133t137 45q58 0 90 -20l-46 -100q-31 14 -57 14q-57 0 -70 -63l-6 -35h108l-21 -106h-108l-85 -432q-17 -88 -71 -133t-137 -45q-58 0 -90 20l46 100q31 -14 57 -14q56 0 70 63z" horiz-adv-x="483" glyph-name="florin" unicode="ƒ"/>
<glyph d="M146 566h-120l171 186h34l171 -186h-120l-68 74z" horiz-adv-x="428" glyph-name="circumflex" unicode="ˆ"/>
<glyph d="M231 566h-34l-171 186h120l68 -74l68 74h120z" horiz-adv-x="428" glyph-name="caron" unicode="ˇ"/>
<glyph d="M8 700h91q0 -13 8 -20t19 -7t19 7t8 20h91q0 -46 -33 -77.5t-85 -31.5t-85 31.5t-33 77.5z" horiz-adv-x="259" glyph-name="breve" unicode="˘"/>
<glyph d="M87 592q-23 23 -23 57t23 57t57 23t57 -23t23 -57t-23 -57t-57 -23t-57 23z" horiz-adv-x="288" glyph-name="dotaccent" unicode="˙"/>
<glyph d="M117 687q-30 0 -30 -32t30 -32t30 32t-30 32zM43 582q-29 29 -29 73t29 73t74 29t74 -29t29 -73t-29 -73t-74 -29t-74 29z" horiz-adv-x="234" glyph-name="ring" unicode="˚"/>
<glyph d="M71 -60h80q-58 -49 -58 -78q0 -26 26 -26q13 0 22 7.5t27 31.5l53 -43q-25 -40 -51.5 -58.5t-64.5 -18.5q-44 0 -70.5 24t-26.5 66q0 27 17.5 53t45.5 42z" horiz-adv-x="229" glyph-name="ogonek" unicode="˛"/>
<glyph d="M80 569l-65 55q17 39 51 63t72 24q36 0 73 -21q38 -20 60 -20q33 0 64 43l65 -55q-17 -39 -51 -63t-72 -24q-35 0 -73 20q-38 21 -60 21q-33 0 -64 -43z" horiz-adv-x="415" glyph-name="tilde" unicode="˜"/>
<glyph d="M316 560h-95l64 148h168zM113 560h-95l64 148h168z" horiz-adv-x="463" glyph-name="hungarumlaut" unicode="˝"/>
<glyph d="M501 108l-153 440l-153 -440h306zM647 0h-598v32l248 668h102l248 -668v-32z" horiz-adv-x="696" glyph-name="uni2206" unicode="Δ"/>
<glyph d="M501 108l-153 440l-153 -440h306zM647 0h-598v32l248 668h102l248 -668v-32z" horiz-adv-x="696" glyph-name="uni2206" unicode="∆"/>
<glyph d="M497 108h130v-108h-245v40l27 61q18 42 44 144q28 105 28 195q0 75 -35 117.5t-98 42.5t-98 -42.5t-35 -117.5q0 -113 34 -228q28 -90 55 -150l10 -22v-40h-245v108h130q-22 35 -38 66q-20 42 -33 74q-37 95 -37 192q0 118 69 193q70 75 188 75t187 -75q70 -74 70 -193 q0 -78 -27 -160q-27 -84 -54 -128z" horiz-adv-x="696" glyph-name="uni2126" unicode="Ω"/>
<glyph d="M497 108h130v-108h-245v40l27 61q18 42 44 144q28 105 28 195q0 75 -35 117.5t-98 42.5t-98 -42.5t-35 -117.5q0 -113 34 -228q28 -90 55 -150l10 -22v-40h-245v108h130q-22 35 -38 66q-20 42 -33 74q-37 95 -37 192q0 118 69 193q70 75 188 75t187 -75q70 -74 70 -193 q0 -78 -27 -160q-27 -84 -54 -128z" horiz-adv-x="696" glyph-name="uni2126" unicode="Ω"/>
<glyph d="M133 396h-83v108h519v-108h-83v-396h-124v396h-105v-396h-124v396z" horiz-adv-x="620" glyph-name="pi" unicode="π"/>
<glyph horiz-adv-x="476" glyph-name="uni2000" unicode=" "/>
<glyph horiz-adv-x="953" glyph-name="uni2001" unicode=" "/>
<glyph horiz-adv-x="476" glyph-name="uni2002" unicode=" "/>
<glyph horiz-adv-x="953" glyph-name="uni2003" unicode=" "/>
<glyph horiz-adv-x="317" glyph-name="uni2004" unicode=" "/>
<glyph horiz-adv-x="238" glyph-name="uni2005" unicode=" "/>
<glyph horiz-adv-x="158" glyph-name="uni2006" unicode=" "/>
<glyph horiz-adv-x="158" glyph-name="uni2007" unicode=" "/>
<glyph horiz-adv-x="119" glyph-name="uni2008" unicode=" "/>
<glyph horiz-adv-x="190" glyph-name="uni2009" unicode=" "/>
<glyph horiz-adv-x="52" glyph-name="uni200A" unicode=" "/>
<glyph d="M438 263h-373v108h373v-108z" horiz-adv-x="503" glyph-name="uni2010" unicode="‐"/>
<glyph d="M438 263h-373v108h373v-108z" horiz-adv-x="503" glyph-name="uni2011" unicode="‑"/>
<glyph d="M520 263h-455v108h455v-108z" horiz-adv-x="585" glyph-name="endash" unicode="–"/>
<glyph d="M706 263h-641v108h641v-108z" horiz-adv-x="771" glyph-name="emdash" unicode="—"/>
<glyph d="M50 708h163l78 -244h-92z" horiz-adv-x="334" glyph-name="quoteleft" unicode="‘"/>
<glyph d="M135 464h-92l78 244h163z" horiz-adv-x="334" glyph-name="quoteright" unicode="’"/>
<glyph d="M135 -14h-92l78 244h163z" horiz-adv-x="334" glyph-name="quotesinglbase" unicode="‚"/>
<glyph d="M50 708h163l78 -244h-92zM270 708h163l78 -244h-92z" horiz-adv-x="554" glyph-name="quotedblleft" unicode="“"/>
<glyph d="M355 464h-92l78 244h163zM135 464h-92l78 244h163z" horiz-adv-x="554" glyph-name="quotedblright" unicode="”"/>
<glyph d="M355 -14h-92l78 244h163zM135 -14h-92l78 244h163z" horiz-adv-x="554" glyph-name="quotedblbase" unicode="„"/>
<glyph d="M201 396h-149v108h149v246h122v-246h149v-108h-149v-446h-122v446z" horiz-adv-x="524" glyph-name="dagger" unicode="†"/>
<glyph d="M201 396h-149v108h149v246h122v-246h149v-108h-149v-92h149v-108h-149v-246h-122v246h-149v108h149v92z" horiz-adv-x="524" glyph-name="daggerdbl" unicode="‡"/>
<glyph d="M112 246q-34 34 -34 84q0 49 34 83q35 35 84 35q48 0 83 -35t35 -83q0 -49 -35 -84q-34 -34 -83 -34q-50 0 -84 34z" horiz-adv-x="392" glyph-name="bullet" unicode="•"/>
<glyph d="M748 18q-24 24 -24 60t24 60t60 24t60 -24t24 -60t-24 -60t-60 -24t-60 24zM426 18q-24 24 -24 60t24 60t60 24t60 -24t24 -60t-24 -60t-60 -24t-60 24zM104 18q-24 24 -24 60t24 60t60 24t60 -24t24 -60t-24 -60t-60 -24t-60 24z" horiz-adv-x="972" glyph-name="ellipsis" unicode="…"/>
<glyph horiz-adv-x="190" glyph-name="uni202F" unicode=" "/>
<glyph d="M120 20l538 718l72 -57l-538 -719zM975 198q-16 -19 -16 -46q0 -28 16 -47q17 -18 46 -18t45 18q17 17 17 47q0 29 -17 46q-16 19 -45 19q-30 0 -46 -19zM903 38q-46 46 -46 114t46 114t118 46q71 0 117 -46q47 -47 47 -114t-47 -114q-46 -46 -117 -46q-72 0 -118 46z M576 198q-16 -19 -16 -46q0 -28 16 -47q16 -18 46 -18q28 0 45 18q17 17 17 47q0 29 -17 46q-16 19 -45 19q-30 0 -46 -19zM504 38q-46 46 -46 114t46 114t118 46q71 0 117 -46q47 -47 47 -114t-47 -114q-46 -46 -117 -46q-72 0 -118 46zM170 594q-16 -19 -16 -46 q0 -28 16 -47q17 -18 46 -18q28 0 45 18q17 17 17 47q0 29 -17 46q-16 19 -45 19q-30 0 -46 -19zM98 434q-46 46 -46 114t46 114t118 46q71 0 117 -46q47 -47 47 -114t-47 -114q-46 -46 -117 -46q-72 0 -118 46z" horiz-adv-x="1237" glyph-name="perthousand" unicode="‰"/>
<glyph d="M353 51l-309 218v82l309 218v-128l-185 -131l185 -131v-128z" horiz-adv-x="403" glyph-name="guilsinglleft" unicode="‹"/>
<glyph d="M50 569l309 -218v-82l-309 -218v128l185 131l-185 131v128z" horiz-adv-x="403" glyph-name="guilsinglright" unicode="›"/>
<glyph d="M3 20l538 718l72 -57l-538 -719z" horiz-adv-x="616" glyph-name="fraction" unicode="⁄"/>
<glyph horiz-adv-x="238" glyph-name="uni205F" unicode=" "/>
<glyph d="M260 591q-21 30 -53 30t-53 -30q-21 -29 -21 -91t21 -92q20 -29 53 -29t53 29q21 30 21 92t-21 91zM85 650q45 54 122 54t121 -54q45 -52 45 -150q0 -97 -45 -151q-44 -53 -121 -53t-122 53q-44 55 -44 151q0 97 44 150z" horiz-adv-x="414" glyph-name="uni2070" unicode="⁰"/>
<glyph d="M195 570l-63 -122h63v122zM284 300h-89v65h-167v45l161 290h95v-252h43v-83h-43v-65z" horiz-adv-x="351" glyph-name="uni2074" unicode="⁴"/>
<glyph d="M42 414l87 10q11 -45 51 -45q54 0 54 59q0 55 -54 55q-32 0 -58 -23l-71 15l21 215h230v-83h-155l-10 -67q27 15 63 15q60 0 93.5 -35t33.5 -92q0 -66 -40 -104t-107 -38q-54 0 -93.5 33.5t-44.5 84.5z" horiz-adv-x="355" glyph-name="uni2075" unicode="⁵"/>
<glyph d="M189 476q-22 0 -34.5 -14t-12.5 -37q0 -20 15 -33t34 -13t31 13q14 14 14 35q0 20 -11.5 34.5t-30.5 14.5h-5zM180 704h100l-89 -148q7 3 18 3q53 0 87 -34t34 -97q0 -58 -39.5 -95t-101.5 -37t-101 36.5t-39 95.5q0 44 18 75z" horiz-adv-x="374" glyph-name="uni2076" unicode="⁶"/>
<glyph d="M40 700h261v-35l-150 -365h-95l132 317h-148v83z" horiz-adv-x="316" glyph-name="uni2077" unicode="⁷"/>
<glyph d="M211 625q-12 12 -30 12t-30 -12q-11 -11 -11 -32t11 -32q12 -12 30 -12t30 12q11 11 11 32t-11 32zM214 460q-13 13 -33 13t-33 -13q-12 -12 -12 -34t12 -34q13 -13 33 -13t33 13q12 12 12 34t-12 34zM306 596q0 -54 -45 -80q58 -27 58 -90q0 -59 -38 -94.5t-100 -35.5 t-100 35.5t-38 94.5q0 63 58 90q-45 26 -45 80q0 45 34.5 76.5t90.5 31.5t90.5 -31.5t34.5 -76.5z" horiz-adv-x="362" glyph-name="uni2078" unicode="⁸"/>
<glyph d="M185 524q21 0 34 13t13 35q0 21 -14.5 35t-33.5 14t-33 -14q-13 -13 -13 -34q0 -20 11.5 -34.5t30.5 -14.5h5zM194 296h-100l89 148q-7 -3 -18 -3q-53 0 -87 34t-34 97q0 58 39.5 95t101.5 37t101 -36.5t39 -95.5q0 -44 -18 -75z" horiz-adv-x="374" glyph-name="uni2079" unicode="⁹"/>
<glyph d="M114 376h-89l50 108h50q24 107 95 165.5t172 58.5q153 0 216 -117l-108 -64q-35 65 -108 65q-108 0 -140 -108h210l-50 -108h-174v-52h224l-50 -108h-160q32 -108 140 -108q73 0 108 65l108 -64q-63 -117 -216 -117q-101 0 -172 58.5t-95 165.5h-100l50 108h39v52z" horiz-adv-x="644" glyph-name="Euro" unicode="€"/>
<glyph d="M485 300h-97v400h97l97 -233l97 233h97v-400h-97v193l-65 -156h-64l-65 156v-193zM127 610h-104v90h305v-90h-104v-310h-97v310z" horiz-adv-x="852" glyph-name="trademark" unicode="™"/>
<glyph d="M344 406q-71 0 -117 -58t-46 -131q0 -53 26 -86t75 -33q70 0 110 55q41 56 41 134q0 61 -21 90t-68 29zM215 528l-113 35q20 63 81 103q61 42 135 42q133 0 194 -83.5t61 -256.5q0 -159 -68 -263q-75 -113 -243 -113q-96 0 -157 60t-61 157q0 132 88 217q89 86 223 86 q49 0 87 -22q-9 57 -36 84.5t-76 27.5q-79 0 -115 -74z" horiz-adv-x="630" glyph-name="partialdiff" unicode="∂"/>
<glyph d="M212 0h-124v700h409v-700h-124v592h-161v-592z" horiz-adv-x="585" glyph-name="product" unicode="∏"/>
<glyph d="M493 108v-108h-441v55l186 295l-186 295v55h441v-108h-272l141 -228v-28l-141 -228h272z" horiz-adv-x="553" glyph-name="summation" unicode="∑"/>
<glyph d="M536 263h-476v108h476v-108z" horiz-adv-x="594" glyph-name="minus" unicode="−"/>
<glyph d="M168 277h-116v112h184l71 -226l155 545h120l-220 -708h-102z" horiz-adv-x="601" glyph-name="radical" unicode="√"/>
<glyph d="M623 272q42 0 66 22.5t24 64.5t-24 64.5t-66 22.5q-69 0 -116 -87q47 -87 116 -87zM261 272q69 0 116 87q-47 87 -116 87q-42 0 -66 -22.5t-24 -64.5t24 -64.5t66 -22.5zM640 168q-59 0 -112.5 24t-85.5 71q-32 -47 -85.5 -71t-112.5 -24q-91 0 -142 51.5t-51 139.5 t51 139.5t142 51.5q59 0 112.5 -24t85.5 -71q32 47 85.5 71t112.5 24q91 0 142 -51.5t51 -139.5t-51 -139.5t-142 -51.5z" horiz-adv-x="884" glyph-name="infinity" unicode="∞"/>
<glyph d="M98 -43l112 573q34 178 204 178q62 0 94 -20l-46 -100q-31 14 -57 14q-57 0 -70 -63l-112 -573q-34 -178 -201 -178q-65 0 -97 20l46 100q31 -14 57 -14q56 0 70 63z" horiz-adv-x="483" glyph-name="integral" unicode="∫"/>
<glyph d="M124 351l-64 69q19 47 61 79t90 32q45 0 106 -30q63 -29 94 -29q51 0 91 51l64 -69q-19 -47 -61 -79t-90 -32q-43 0 -106 29q-61 30 -94 30q-51 0 -91 -51zM127 144l-64 69q19 47 61 79t90 32q44 0 106 -30q63 -29 94 -29q50 0 91 51l64 -69q-19 -47 -61 -79t-90 -32 q-43 0 -106 29q-62 30 -94 30q-50 0 -91 -51z" horiz-adv-x="629" glyph-name="approxequal" unicode="≈"/>
<glyph d="M247 346h-177v108h238l59 103l94 -52l-29 -51h75v-108h-136l-41 -72h177v-108h-238l-59 -103l-94 52l29 51h-75v108h136z" horiz-adv-x="577" glyph-name="notequal" unicode="≠"/>
<glyph d="M525 0h-476v108h476v-108zM482 140l-391 204v116l391 204v-131l-252 -131l252 -131v-131z" horiz-adv-x="575" glyph-name="lessequal" unicode="≤"/>
<glyph d="M50 108h476v-108h-476v108zM93 664l391 -204v-116l-391 -204v131l252 131l-252 131v131z" horiz-adv-x="575" glyph-name="greaterequal" unicode="≥"/>
<glyph d="M185 350l118 -244l118 244l-118 244zM363 0h-120l-182 350l182 350h120l182 -350z" horiz-adv-x="606" glyph-name="lozenge" unicode="◊"/>
<glyph horiz-adv-x="0" glyph-name="NULL"/>
<glyph horiz-adv-x="333" glyph-name="CR.001"/>
<glyph horiz-adv-x="248" glyph-name="CR"/>
<glyph horiz-adv-x="772" glyph-name="apple" d="M408 118l231 -67v412q-37 -60 -98 -97.5t-133 -43.5v-204zM133 463v-412l231 67v204q-73 6 -134 43.5t-97 97.5zM638 602l-230 67v-303q94 8 158 75q66 68 72 161zM364 366v303l-230 -67q6 -93 71 -161q66 -67 159 -75zM682 617v-595q0 -9 -6.5 -15.5t-15.5 -6.5 q-4 0 -7 1l-267 77l-267 -77q-3 -1 -7 -1q-9 0 -15.5 6.5t-6.5 15.5v595q0 18 16 22l270 78q10 4 20 0l270 -78q16 -4 16 -22z"/>
<glyph horiz-adv-x="1270" glyph-name="No" d="M879 557q-34 -43 -34 -109t34 -110q35 -44 92 -44t92 44q34 44 34 110t-34 109q-35 45 -92 45t-92 -45zM784 261q-69 73 -69 187q0 112 69 186t187 74t187 -74t69 -186q0 -114 -69 -187t-187 -73t-187 73zM1199 0h-455v108h455v-108zM484 238v462h130v-700h-137l-257 462 v-462h-130v700h137z"/>
<glyph glyph-name="zero.tn" d="M420 350q0 242 -134 242t-134 -242t134 -242t134 242zM95 613q68 95 191 95t191 -95q67 -94 67 -263q0 -170 -67 -264t-191 -94t-191 94t-67 264q0 169 67 263z"/>
<glyph glyph-name="one.tn" d="M112 580l205 120h55v-700h-126v524l-134 -80v136z"/>
<glyph glyph-name="two.tn" d="M507 0h-445v50l250 323q54 67 54 127q0 43 -22 67.5t-64 24.5q-38 0 -61.5 -24t-29.5 -68l-116 22q5 80 64 133t146 53q97 0 153 -55.5t56 -147.5q0 -87 -60 -166l-171 -223h246v-116z"/>
<glyph glyph-name="three.tn" d="M54 194l121 16q25 -102 113 -102q49 0 80 32t31 85q0 58 -30 90.5t-80 32.5q-33 0 -61 -15l-50 70l132 181h-223v116h401v-44l-165 -223q24 2 28 2q80 0 127 -57t47 -151q0 -107 -67 -171t-170 -64q-96 0 -161 56q-64 56 -73 146z"/>
<glyph glyph-name="four.tn" d="M334 513l-148 -267h148v267zM460 0h-126v130h-301v64l295 506h132v-454h78v-116h-78v-130z"/>
<glyph glyph-name="five.tn" d="M61 183l119 22q19 -97 105 -97q51 0 77.5 32t26.5 92q0 59 -28.5 90t-81.5 31q-69 0 -124 -63l-79 16l39 394h360v-116h-257l-16 -146q44 26 99 26q104 0 159 -61.5t55 -170.5q0 -106 -63 -174q-63 -66 -167 -66q-91 0 -153 52q-62 53 -71 139z"/>
<glyph glyph-name="six.tn" d="M182 220q0 -49 31 -80.5t77 -31.5t77 31t31 81q0 51 -30 81.5t-78 30.5t-78 -30.5t-30 -81.5zM434 708l-152 -260h16q97 0 161 -64q65 -63 65 -164q0 -99 -67 -163q-68 -65 -167 -65t-167 65q-67 64 -67 163q0 65 34 123l204 365h140z"/>
<glyph glyph-name="seven.tn" d="M72 700h424v-52l-264 -648h-124l239 584h-275v116z"/>
<glyph glyph-name="eight.tn" d="M202 515q0 -40 23 -64.5t61 -24.5t61 24.5t23 64.5q0 39 -23 63t-61 24t-61 -24t-23 -63zM359 283q-28 27 -73 27q-44 0 -73 -27t-29 -74t29 -74t73 -27t73 27t29 74t-29 74zM487 517q0 -88 -66 -140q93 -53 93 -168q0 -100 -67 -158q-67 -59 -161 -59t-162 59 q-66 59 -66 158q0 115 92 168q-65 51 -65 140q0 79 56 135q58 56 145 56q88 0 144 -56q57 -56 57 -135z"/>
<glyph glyph-name="nine.tn" d="M390 480q0 49 -31 80.5t-77 31.5t-77 -31t-31 -81q0 -51 30 -81.5t78 -30.5t78 30.5t30 81.5zM138 -8l152 260h-16q-98 0 -162 63q-64 64 -64 165q0 99 67 163q68 65 167 65q98 0 166 -65t68 -163q0 -65 -34 -123l-204 -365h-140z"/>
</font>
</defs>
</svg>
