<svg id="Calque_1" data-name="Calque 1" xmlns="http://www.w3.org/2000/svg" viewBox="0 0 150 150"><defs><style>.cls-1{fill:#fff;}</style></defs><title>logo</title><path d="M122.19,76c-2.55.83-3.85,0.07-4.94-2-3.33-6.17-6.87-12.23-10.34-18.32-0.34-.6-0.74-1.17-1.3-2-2.44,4-4.75,7.82-7,11.63-1.71,2.88-3.49,5.73-5,8.72-1,2.11-2.43,2.76-5,2,1.49-2.62,2.93-5.2,4.42-7.75q5.19-8.88,10.43-17.72c1.1-1.85,3.08-2,4.09-.24C112.45,58.8,117.27,67.32,122.19,76Z"/><path d="M61.61,76.06c-2.52.69-3.86,0.05-5-2-3.34-6.26-6.95-12.38-10.45-18.55-0.31-.54-0.67-1.05-1.18-1.86L34.82,70.83c-0.61,1-1.2,2.07-1.8,3.1-1.52,2.61-1.53,2.61-5,2.17,1.53-2.69,3-5.28,4.48-7.84q5.2-8.88,10.45-17.73c1-1.74,3.07-2,4-.38C51.82,58.7,56.65,67.3,61.61,76.06Z"/><path d="M91.29,49.61L78.92,72a16.4,16.4,0,0,1-1.4,2.5c-0.59.73-1.41,1.7-2.16,1.73a3.22,3.22,0,0,1-2.25-1.57c-3.36-5.79-6.6-11.65-9.88-17.49-1.43-2.55-2.88-5.1-4.35-7.7,2.44-.64,3.77,0,4.95,2.17,3.58,6.74,7.5,13.29,11.49,20.29,1.93-3.46,3.69-6.55,5.4-9.68,2.14-3.91,4.1-7.94,6.46-11.72,0.6-1,2.4-1.19,3.65-1.75Z"/><path d="M0.44,76.16V49.29h3V73.15H24v3H0.44Z"/><path d="M126.06,76.15V49.36h3.06V73.1h20.44v3h-23.5Z"/><path d="M33.92,100.51V79.61c4.78,0,9.64-.23,14.47.08,3.48,0.22,5.16,1.9,5.54,4.36,0.44,2.77-.6,4.45-3.8,6.17,3.62,2.36,5.15,8.21,2.18,10.69,0-1.83,0-3.28,0-4.73,0-3.14-.86-4.56-4.08-4.85-4.35-.38-8.75-0.1-13.6-0.1v9.33ZM35,89.89c3.7,0,7.14.16,10.55-.07a10.88,10.88,0,0,0,5.17-1.53,5.56,5.56,0,0,0,1.81-3.77,2.84,2.84,0,0,0-2.64-3.19C45,80.92,40,80.69,35,80.38v9.51Z"/><path d="M82.24,79.51q0,1.24,0,2.47c0,3.52,0,7,0,10.56,0.06,3.72,1.69,6,5.34,6.54a26.86,26.86,0,0,0,8.49-.24c2.95-.54,4.35-2.74,4.39-5.76,0-3.84,0-7.68,0-11.51a12.06,12.06,0,0,1,.41-2.17l0.65,0.05a4.12,4.12,0,0,1,.26,1c0,4.16.09,8.32,0,12.47-0.12,4.32-1.86,6.75-6.1,7.33a33.18,33.18,0,0,1-9.92-.35,5.54,5.54,0,0,1-4.65-5.44C80.92,89.67,81,84.87,81,80.08a1.68,1.68,0,0,1,.45-0.67Z"/><path d="M117.33,81.13L109.8,94.68c-0.89,1.6-1.74,3.23-2.71,4.78a6.25,6.25,0,0,1-1.47,1.24l-0.41-.42q5.45-9.94,10.92-19.87c0.75-1.35,1.54-1.5,2.36,0,3.5,6.61,7,13.21,10.55,19.81l-0.53.48A8.82,8.82,0,0,1,127,99.11C123.78,93.24,120.65,87.35,117.33,81.13Z"/><path d="M12.09,98.68c3.54-6.54,7-12.86,10.41-19.18a3.37,3.37,0,0,1,1,.13c-1.13,2.22-2.17,4.32-3.25,6.4-2.32,4.46-4.66,8.91-7,13.37-0.59,1.14-1.27,1.92-2.14.31C7.53,93.08,4,86.4.45,79.74l0.69-.52a19.08,19.08,0,0,1,1.7,2.29c2.85,5.27,5.64,10.56,8.45,15.84C11.51,97.75,11.76,98.13,12.09,98.68Z"/><path d="M66.87,80.44H57.15l0.06-.77h20.4l0.05,0.73h-9.6c-0.2,7,.06,13.61-0.16,20.15l-1,0V80.44Z"/><path d="M149.44,100.41H132.66V79.55l0.77-.07c0.06,2.08.13,4.16,0.16,6.24,0,2.24,0,4.47,0,6.71s0,4.43,0,7.11h15.91Z"/><path d="M28.24,79.54v21.71c-0.68-.93-1.17-1.28-1.17-1.64Q27,90,27.07,80.41a2.63,2.63,0,0,1,.6-1Z"/><path class="cls-1" d="M35,89.89V80.38c5,0.31,10,.55,14.9,1a2.84,2.84,0,0,1,2.64,3.19,5.56,5.56,0,0,1-1.81,3.77,10.88,10.88,0,0,1-5.17,1.53C42.14,90,38.7,89.89,35,89.89Z"/></svg>