<svg id="Calque_1" data-name="Calque 1" xmlns="http://www.w3.org/2000/svg" viewBox="0 0 150 150"><title>logo</title><path d="M47.94,54.8a2,2,0,0,0-.16.24c-2.11,4.52-5.76,7.22-10.39,8.74a21.69,21.69,0,0,1-6.79,1.06H0.19V64.07q0-25.94,0-51.88c0-.65.18-0.81,0.82-0.81,9.58,0,19.17,0,28.75,0a23.46,23.46,0,0,1,8.82,1.53,12.34,12.34,0,0,1,8,12.28,10.79,10.79,0,0,1-5.42,9.41l-1,.65a13.29,13.29,0,0,1,7.84,6.89l0.16,0V41.4q0-14.54,0-29.07c0-.94,0-0.94.93-0.94h61.15c0.93,0,.93,0,1.15.93l7.23,29.79c0,0.16.09,0.32,0.19,0.68,0.11-.35.18-0.53,0.23-0.71q3.65-15,7.28-30a0.7,0.7,0,0,1,.8-0.66q11.09,0,22.17,0a0.56,0.56,0,0,1,.68.7q0,26,0,52.07c0,0.45-.05.7-0.61,0.69-4.81,0-9.63,0-14.44,0-0.17,0-.33,0-0.56-0.05V30.92l-0.16,0c-0.07.22-.14,0.44-0.2,0.66q-4.41,16.27-8.8,32.55a0.84,0.84,0,0,1-1,.76q-5.4,0-10.8,0a0.84,0.84,0,0,1-1-.78Q108,47.88,103.58,31.7a2.3,2.3,0,0,0-.35-0.82V64.78H87.59V63.91q0-19.42,0-38.85c0-.87,0-0.87-0.86-0.87H64.58c0,0.25,0,.43,0,0.62,0,2.24,0,4.47,0,6.71a0.52,0.52,0,0,0,.65.65c4.56,0,9.12,0,13.67,0a0.63,0.63,0,0,1,.78.79c0,3.6,0,7.2,0,10.8v0.78H78.73c-4.45,0-8.9,0-13.35,0-0.63,0-.78.18-0.77,0.79,0,6.24,0,12.48,0,18.72,0,0.61-.11.84-0.79,0.84q-7.51,0-15,0c-0.64,0-.78-0.2-0.77-0.8,0-2.85,0-5.71,0-8.56V54.82ZM16.69,42.24v0.68c0,2.79,0,5.58,0,8.36a0.6,0.6,0,0,0,.74.76c3.11,0,6.22,0,9.32,0a10.17,10.17,0,0,0,3-.48c3-1,4-5.5,1.8-7.8a5.39,5.39,0,0,0-4-1.49c-3.47,0-6.94,0-10.41,0C17,42.19,16.9,42.21,16.69,42.24Zm0-10.12a3,3,0,0,0,.36,0c3,0,6,0,9,0a7.76,7.76,0,0,0,2.78-.6c1.78-.76,2.11-2.36,2-4.1a3,3,0,0,0-2.4-2.81,11.39,11.39,0,0,0-2.82-.42c-2.72-.05-5.45,0-8.17,0H16.7v7.91Z"/><path d="M116.4,122.42c0,1.15,0,2.3,0,3.45a2,2,0,0,1-.79,1.64c-1.71,1.38-3.38,2.8-5,4.23a0.79,0.79,0,0,1-1.14.1c-6.33-4.09-12.69-8.15-19-12.23a1,1,0,0,0-1.34,0c-6.93,4.76-13.89,9.49-20.82,14.25a1.33,1.33,0,0,1-1.45.15c-5.86-2.49-11.73-4.95-17.59-7.44a1.29,1.29,0,0,0-1.3.08q-10,5.84-20.05,11.64l-0.34.18c-0.5.24-.67,0.16-0.69-0.39s0-1.15,0-1.72c0-1.7,0-3.41,0-5.11a1,1,0,0,1,.56-1q9.85-5.87,19.68-11.78a1.2,1.2,0,0,1,1.2,0q8.92,3.5,17.84,7a1.22,1.22,0,0,0,1.29-.14Q78.18,118,89,110.66a1.15,1.15,0,0,1,1.51,0c6.2,4.06,12.42,8.08,18.63,12.14a0.86,0.86,0,0,0,1.22-.07c1.73-1.45,3.49-2.86,5.24-4.28a2.77,2.77,0,0,1,.55-0.27,2,2,0,0,1,.23.62c0,1.21,0,2.43,0,3.64h0Z"/><path d="M16.06,87.88a17.74,17.74,0,0,1,1.5,1.19,9.65,9.65,0,0,1,2.9,6.56A10.35,10.35,0,0,1,18,103.75a8.29,8.29,0,0,1-4.64,2.5,15.38,15.38,0,0,1-2.78.32c-3.28,0-6.56,0-9.84,0A0.59,0.59,0,0,1,0,105.89q0-17.15,0-34.3c0-.33-0.08-0.69.48-0.69,3.26,0,6.52,0,9.77.13a10.92,10.92,0,0,1,6,1.93,7.94,7.94,0,0,1,3.35,6.18,9.48,9.48,0,0,1-1.39,6.36A23.24,23.24,0,0,1,16.06,87.88Zm-8.77,8c0,1.06,0,2.12,0,3.19a0.4,0.4,0,0,0,.48.48c0.66,0,1.32,0,2,0,2.39-.14,3.58-1.46,3.49-3.86,0-.27,0-0.55-0.08-0.82A2.52,2.52,0,0,0,11,92.44c-1-.19-2.06-0.17-3.1-0.26a0.49,0.49,0,0,0-.62.61C7.31,93.8,7.28,94.82,7.29,95.84Zm0-10.75c0.69,0,1.33,0,2,0a2.91,2.91,0,0,0,3-2.64c0.2-1.31.22-2.64-.91-3.6S8.76,77.92,7.31,78v7.08Z"/><path d="M73.6,70.42L89.09,87.1l0.17,0V86.35c0-4.9,0-9.8,0-14.7,0-.58.14-0.77,0.74-0.75C91.86,71,93.73,71,95.6,71c0.49,0,.6.18,0.6,0.64q0,17.22,0,34.44c0,0.14,0,.28,0,0.62L80.64,89.88l-0.16,0q0,0.35,0,.7c0,5,0,10.09,0,15.14,0,0.6-.13.82-0.77,0.8-1.85,0-3.71,0-5.56,0a0.53,0.53,0,0,1-.67-0.64q0-17.41,0-34.82C73.54,70.92,73.57,70.76,73.6,70.42Z"/><path d="M21.43,70.91h3.43c1,0,1.92,0,2.87,0a0.53,0.53,0,0,1,.65.66c0,4,0,8,0,11.95,0,3.09,0,6.18,0,9.26a13.92,13.92,0,0,0,.49,3.52,4.12,4.12,0,0,0,6.43,2.23,3.67,3.67,0,0,0,1.42-2,18.37,18.37,0,0,0,.78-5.8q0-9.52,0-19c0-.82,0-0.82.85-0.82,1.83,0,3.66,0,5.49,0a0.51,0.51,0,0,1,.62.62c0,7.86,0,15.72-.06,23.58a12.38,12.38,0,0,1-4.14,9.57c-3.77,3.31-10.48,3.7-14.44.89a10.41,10.41,0,0,1-4.14-7.22,23.94,23.94,0,0,1-.28-3.75c0-7.65,0-15.29,0-22.94C21.4,71.44,21.42,71.21,21.43,70.91Z"/><path d="M146,80.28c-0.46-.42-0.91-0.82-1.35-1.25a4.43,4.43,0,0,0-2.5-1.31,2.82,2.82,0,0,0-3,1.54,2.86,2.86,0,0,0,.73,3.37,5.73,5.73,0,0,0,1.05.72c1.09,0.59,2.17,1.18,3.29,1.71a9.32,9.32,0,0,1,5.6,7.67,19,19,0,0,1-.43,7.6,9.27,9.27,0,0,1-12.1,6.63,10.72,10.72,0,0,1-5.18-3.36,0.88,0.88,0,0,1-.18-0.75c1.1-2.07,2.24-4.11,3.37-6.16a1.49,1.49,0,0,1,.2-0.22c0.28,0.35.53,0.69,0.81,1a4.89,4.89,0,0,0,3.88,1.77,3.26,3.26,0,0,0,3.05-2.11,3,3,0,0,0-1.3-3.56c-1.32-.82-2.71-1.52-4.09-2.23a9.58,9.58,0,0,1-5.53-8.49,14.42,14.42,0,0,1,1.27-7.71,8.69,8.69,0,0,1,13-3.41,20,20,0,0,1,2.44,2.14,0.71,0.71,0,0,1,.14.65c-1,1.91-2.09,3.81-3.14,5.7A0.09,0.09,0,0,1,146,80.28Z"/><path d="M49.11,96.48c0.34,0.41.64,0.81,1,1.18a4.78,4.78,0,0,0,3.64,1.59,3.25,3.25,0,0,0,3.12-2.11,3,3,0,0,0-1.41-3.63c-1.11-.68-2.27-1.26-3.42-1.85a12.72,12.72,0,0,1-3.41-2.33A9.25,9.25,0,0,1,46,83.75a14.56,14.56,0,0,1,1-8.25c2.81-5.75,9-7.15,14-3.16a15.61,15.61,0,0,1,1.64,1.6,0.66,0.66,0,0,1,.09.6c-1,1.9-2.06,3.77-3.1,5.66a0.41,0.41,0,0,1-.11.1c-0.51-.49-1-1-1.53-1.44a4.2,4.2,0,0,0-2.44-1.15,2.78,2.78,0,0,0-2.37,4.7,5.41,5.41,0,0,0,1.22.91c1.12,0.62,2.25,1.21,3.4,1.77a9.33,9.33,0,0,1,5.53,7.59,19.57,19.57,0,0,1-.25,7c-1.74,7.49-8.77,9.51-14.5,6.33a18.71,18.71,0,0,1-3-2.44,0.75,0.75,0,0,1-.13-0.7c1.1-2.07,2.24-4.11,3.37-6.16A1.35,1.35,0,0,1,49.11,96.48Z"/><path d="M117.5,96.42c0.39,0.47.67,0.86,1,1.22A4.61,4.61,0,0,0,123.55,99a3,3,0,0,0,.51-5.31,24.51,24.51,0,0,0-3-1.68,12.8,12.8,0,0,1-4.93-3.74,10.26,10.26,0,0,1-1.77-5.51,13.49,13.49,0,0,1,1.7-8.3,8.63,8.63,0,0,1,11.78-3.19,11,11,0,0,1,3.26,2.63,0.78,0.78,0,0,1,.17.65c-1,2-2.11,3.88-3.22,5.91l-1-1A4.8,4.8,0,0,0,124,77.7a2.84,2.84,0,0,0-2.76,1.48,2.81,2.81,0,0,0,.37,3.11,5.14,5.14,0,0,0,1.24,1c1.05,0.6,2.12,1.19,3.22,1.69a9.45,9.45,0,0,1,5.85,8.19,19.63,19.63,0,0,1-.42,7c-1.61,6.05-7.28,8.87-13.1,6.52a10.9,10.9,0,0,1-4.27-3.05,0.8,0.8,0,0,1-.2-0.64C115.08,100.8,116.26,98.66,117.5,96.42Z"/><path d="M105,99h5.27c1.76,0,1.76,0,1.76,1.75s0,3.45,0,5.17a0.53,0.53,0,0,1-.65.65q-6.39,0-12.77,0a0.54,0.54,0,0,1-.65-0.67q0-17.18,0-34.36c0-.55.19-0.67,0.7-0.67q7,0,14,0c0.55,0,.74.14,0.73,0.72q0,3.13,0,6.26a0.59,0.59,0,0,1-.73.72c-2.36,0-4.73,0-7.09,0-0.46,0-.64.12-0.63,0.61,0,1.62,0,3.24,0,4.85,0,0.54.2,0.64,0.67,0.63,1.94,0,3.87,0,5.81,0a0.51,0.51,0,0,1,.63.61q0,3.19,0,6.39a0.48,0.48,0,0,1-.59.59c-2,0-4,0-5.94,0-0.38,0-.59.08-0.58,0.52,0,2,0,4,0,5.94A2.85,2.85,0,0,0,105,99Z"/><path d="M71.47,70.23v0.85q0,17.31,0,34.63c0,0.88,0,.88-0.86.88-1.79,0-3.58,0-5.37,0-0.53,0-.75-0.11-0.74-0.7q0-15.65,0-31.31a1,1,0,0,1,.37-0.77c2-1.17,4.08-2.3,6.13-3.43A4.44,4.44,0,0,1,71.47,70.23Z"/></svg>