<svg id="Calque_1" data-name="Calque 1" xmlns="http://www.w3.org/2000/svg" viewBox="0 0 148.37 25.36"><defs><style>.cls-1{fill:#3b4859;}</style></defs><title>logo_casque</title><g id="OIn8ef.tif"><path class="cls-1" d="M98.55,0L98.4,2.89c-0.34,0-.68.06-1,0.06-1.88,0-3.76,0-5.63,0a2.85,2.85,0,0,0-3.18,3.16q0,4.49,0,9a2.79,2.79,0,0,0,3.1,3.1c1.39,0,2.78,0,4.17,0a2.62,2.62,0,0,0,2.78-2.54c0.2-3.41.17-4.2-3.47-4-0.54,0-1.09,0-1.7,0V8.71c1.82,0,3.66-.36,5.41.38a4.32,4.32,0,0,1,2.73,3.67,14.38,14.38,0,0,1,0,3.43,5.61,5.61,0,0,1-5.54,5q-2.4.07-4.8,0a5.67,5.67,0,0,1-5.63-5.78c0-3.06,0-6.12,0-9.18a5.72,5.72,0,0,1,4.53-6A1.23,1.23,0,0,0,90.41,0h8.14Z"/><path class="cls-1" d="M0,18.79l1.37-.86a4.89,4.89,0,0,0,4.13,1.7,2.4,2.4,0,0,0,2.36-1.71,2.25,2.25,0,0,0-1.09-2.69c-1-.64-2.17-1.08-3.24-1.66a9.59,9.59,0,0,1-2.07-1.36,3.32,3.32,0,0,1,.06-4.76c2.07-2,6.54-1.48,8.15,1l-1.21,1a4.52,4.52,0,0,0-3.7-1.72A2.24,2.24,0,0,0,2.4,9.41c-0.21,1,.16,1.66,1.37,2.3s2.45,1.16,3.64,1.8c1.92,1,2.67,2.46,2.33,4.33A3.93,3.93,0,0,1,6,21.18,6.64,6.64,0,0,1,0,19V18.79Z"/><path class="cls-1" d="M106.76,13.5a22.93,22.93,0,0,0,.14,2.59,2.58,2.58,0,0,0,2.62,2.1c1.84,0,3.69,0,5.53,0h1.19V21a76.53,76.53,0,0,1-8-.06c-2.49-.26-4.34-2.73-4.42-5.36-0.07-2.33-.08-4.66,0-7a5.65,5.65,0,0,1,5.67-5.52c1.53,0,3.06,0,4.59,0a4.52,4.52,0,0,1,4.58,4.24,8.88,8.88,0,0,1-.16,2.79A4.56,4.56,0,0,1,114,13.5c-2,0-4,0-5.95,0h-1.26Zm0.14-3.1a0.94,0.94,0,0,0,.28.09c2.23,0,4.45,0,6.68,0,1.34,0,1.84-.66,1.84-2.21s-0.53-2.2-1.84-2.23c-1.15,0-2.3.06-3.44,0C107.69,5.84,106.34,7.57,106.91,10.4Z"/><path class="cls-1" d="M131.12,10.79a18.58,18.58,0,0,0,0-2.6,2.68,2.68,0,0,0-2.82-2.13c-2,0-4,0-6.09,0V3.18c2.45,0,4.89-.19,7.28.05a5.49,5.49,0,0,1,4.73,5.53c0.07,2.26.08,4.52,0,6.78a5.68,5.68,0,0,1-5.77,5.64c-1.42,0-2.85,0-4.28,0-3-.05-4.84-2-4.86-5.07,0-3.25,1.76-5.23,4.84-5.3,1.95,0,3.89,0,5.84,0h1.16Zm0,3c-2.53,0-4.95,0-7.36,0-1.11,0-1.54.83-1.51,2.41,0,1.28.54,1.95,1.63,2,1.59,0,3.19.05,4.78,0a2.57,2.57,0,0,0,2.45-2.4C131.21,15.16,131.16,14.53,131.16,13.78Z"/><path class="cls-1" d="M137,3.15h2.88V7.06c2.09-3.08,5-3.79,8.51-3.45V6.44c-0.33,0-.64.05-0.94,0.06-4,0-6.7,2.19-7.31,6.23a51.19,51.19,0,0,0-.23,6.14c0,0.72,0,1.45,0,2.24H137v-18Z"/><path class="cls-1" d="M22.53,20.87h-1.6V10.75l1.26-.24,0.42,0.79c2-1.11,4-1.51,6,.3A5.93,5.93,0,0,1,32.9,10.4c1.63,0.17,2.7.94,2.8,2.56,0.16,2.62,0,5.25,0,7.93H34.23c0-1.22,0-2.42,0-3.63s0-2.16,0-3.23c-0.13-1.83-1.2-2.59-3-2.19a7.06,7.06,0,0,0-1,.31A1.5,1.5,0,0,0,29.13,14c0.2,2.24.06,4.51,0.06,6.85H27.54q0-1.75,0-3.51c0-.94,0-1.88,0-2.82s-0.14-2.12-1.3-2.62a3.73,3.73,0,0,0-3.48.88,1.62,1.62,0,0,0-.21,1C22.52,16.09,22.53,18.45,22.53,20.87Z"/><path class="cls-1" d="M76.18,10.46c0,3.32,0,6.37,0,9.43A16.68,16.68,0,0,1,76,22.17a3.39,3.39,0,0,1-2.78,3,5.58,5.58,0,0,1-5.62-1.59l1-.88a3.87,3.87,0,0,0,4.76.85c1.08-.58,1.11-1.74,1.06-2.77a16.7,16.7,0,0,1-3.31.19c-2.49-.35-4-2.45-4-5.33a4.9,4.9,0,0,1,4.22-5.15A41,41,0,0,1,76.18,10.46Zm-1.67,5.07q0-1,0-2c0-1.91,0-1.94-2-1.85h-0.1a3.54,3.54,0,0,0-3.28,2.49A4.25,4.25,0,0,0,70,18.75a3.25,3.25,0,0,0,3.76.62,1.46,1.46,0,0,0,.72-1A25.66,25.66,0,0,0,74.51,15.53Z"/><path class="cls-1" d="M17.27,14.15A2.06,2.06,0,0,0,16.32,12c-1.34-.66-2.49-0.16-3.55.82l-1-.69c0.79-1.43,2.4-2,4.55-1.66a2.74,2.74,0,0,1,2.55,2.73c0.14,2.52,0,5.06,0,7.83l-1.69-.39a18.59,18.59,0,0,1-3.3.47,2.94,2.94,0,0,1-2.83-2.48,2.93,2.93,0,0,1,1.74-3.43,23.55,23.55,0,0,1,3.6-.94A6.09,6.09,0,0,1,17.27,14.15Zm0,1.29a18.5,18.5,0,0,0-3.2.7,2.58,2.58,0,0,0-1.31,1.45,1.79,1.79,0,0,0,1.89,2.25c1.17,0,2.57-.69,2.61-1.42C17.34,17.52,17.3,16.62,17.3,15.44Z"/><path class="cls-1" d="M54.77,20.9c-0.63-.1-1.4.47-1.64-0.68a5.65,5.65,0,0,1-4.11.9c-1.58-.21-2.71-1.07-2.8-2.62-0.15-2.56,0-5.13,0-7.76l1.58-.27c0,0.55,0,1,0,1.49,0,1.84,0,3.69,0,5.53a2.1,2.1,0,0,0,2.53,2.32,7.6,7.6,0,0,0,2-.54,1.25,1.25,0,0,0,.85-1.38c0-2,0-4,0-6.05,0-.37,0-0.75,0-1.17h1.63V20.9Z"/><path class="cls-1" d="M65.71,20.88H64.13c0-1.14,0-2.25,0-3.35s0-2.09,0-3.13c0-1.48-.49-2.24-1.52-2.56s-3.22.13-3.78,0.93a1.65,1.65,0,0,0-.15.88c0,2.39,0,4.78,0,7.22h-1.6V10.75l1.27-.24L58.62,11a28.16,28.16,0,0,1,3.95-.58,2.76,2.76,0,0,1,3.1,2.73C65.84,15.7,65.71,18.27,65.71,20.88Z"/><path class="cls-1" d="M37.3,19.19l1.25-.76a2.87,2.87,0,0,0,3.07,1.39,1.54,1.54,0,0,0,1.55-1.16,1.57,1.57,0,0,0-.86-1.85c-1-.48-2-0.82-3-1.3a2.47,2.47,0,0,1-1.58-3,2.72,2.72,0,0,1,.68-1.25c1.26-1.29,5.06-1.2,6,.81l-1,.81V12.53a13.51,13.51,0,0,0-2.79-.76,1.87,1.87,0,0,0-1.38,1c-0.32.66,0.26,1.16,0.87,1.43,0.82,0.37,1.69.64,2.5,1a3,3,0,0,1,2,3.6,3.12,3.12,0,0,1-3.09,2.33A4.12,4.12,0,0,1,37.3,19.19Z"/></g></svg>