<svg id="Calque_1" data-name="Calque 1" xmlns="http://www.w3.org/2000/svg" viewBox="0 0 57.39 47.92"><defs><style>.cls-1{fill:#3b4859;}</style></defs><title>logo_casque</title><g id="TEsnfX.tif"><path class="cls-1" d="M3.19,0V5.52a8.29,8.29,0,0,1,4.58-.75,32.27,32.27,0,0,1,4.7.17,5.54,5.54,0,0,1,4.79,5.59c0.07,3,0,6,0,9a2,2,0,0,1,0,.28H14.31c0-.43,0-0.86,0-1.29,0-2.52.06-5,0-7.56a2.89,2.89,0,0,0-3.2-3c-1.59,0-3.19,0-4.78,0A3,3,0,0,0,3.17,11.1c0,2.63,0,5.26,0,7.9,0,0.24,0,.48,0,0.76h-3V0H3.19Z"/><path class="cls-1" d="M0,32.55c1.29-.07,1.3-0.07,1.81,1.13l5.11,12c0.09,0.22.2,0.44,0.35,0.76l1.89-4.39,3.7-8.66c0.42-1,.42-1,1.58-0.8l-1.09,2.49q-2.62,6-5.25,12a0.88,0.88,0,0,1-.87.8,0.86,0.86,0,0,1-.82-0.78l-6-13.72C0.29,33.17.13,32.93,0,32.68V32.55Z"/><path class="cls-1" d="M57.25,4.78V7.91H46.45a3.23,3.23,0,0,0-3.38,3,17.75,17.75,0,0,0,0,3,2.9,2.9,0,0,0,3.14,2.69h11V19.8H46.3c-3.35,0-5.47-1.68-6.1-5a12.1,12.1,0,0,1,.3-6.16,5.48,5.48,0,0,1,5.37-3.86H57.25Z"/><path class="cls-1" d="M30.41,8.12V19.74h-3V8.15h-7V5.08H37.34v3H30.41Z"/><path class="cls-1" d="M47.61,33.57V39.5h8.7v1.11H47.62v6.07h9.76v1H46.49V32.58H57.24v1H47.61Z"/><path class="cls-1" d="M0.14,26.52V25.8H57.3l0,0.72H0.14Z"/><path class="cls-1" d="M41.07,32.58l-3.12,7.16c-1.11,2.55-2.24,5.1-3.34,7.66a0.67,0.67,0,0,1-.72.52,0.71,0.71,0,0,1-.75-0.48Q30,40.22,26.86,33c-0.06-.14-0.09-0.28-0.14-0.43,1.18-.18,1.18-0.18,1.6.81l5.25,12.32c0.08,0.2.18,0.39,0.31,0.67,0.14-.28.24-0.46,0.32-0.66l5.26-12.32C39.87,32.47,39.87,32.47,41.07,32.58Z"/><path class="cls-1" d="M21.09,47.72H20V32.57h1.09V47.72Z"/></g></svg>