<svg id="Calque_1" data-name="Calque 1" xmlns="http://www.w3.org/2000/svg" viewBox="0 0 142.21 30.75"><defs><style>.cls-1{fill:#3b4859;}</style></defs><title>logo_casque</title><g id="AqxE67.tif"><path class="cls-1" d="M35.53,0c0.89,0.12,1.79.2,2.67,0.36a15.27,15.27,0,0,1-.58,30.13c-0.7.11-1.4,0.18-2.09,0.26H15.15c-0.71-.09-1.43-0.17-2.14-0.27A15.25,15.25,0,0,1,.46,19.06C0.26,18.22.15,17.36,0,16.5V14.25c0.06-.35.12-0.71,0.17-1.06A15.23,15.23,0,0,1,12.48.36C13.36,0.21,14.26.12,15.15,0H35.53ZM25.34,20.48v0h8.92a13.35,13.35,0,0,0,1.88-.12,5.1,5.1,0,0,0,4.24-4A5,5,0,0,0,38,11a6,6,0,0,0-3.11-.76h-19a7.15,7.15,0,0,0-1.3.11,5,5,0,0,0-4,3.28,4.8,4.8,0,0,0,.89,5,5,5,0,0,0,3.92,1.83C18.67,20.5,22,20.48,25.34,20.48Z"/><path class="cls-1" d="M142.21,18.76c-0.08.24-.15,0.48-0.23,0.72a4.16,4.16,0,0,1-2.85,2.66,8.61,8.61,0,0,1-8.1-1.72l1.65-2.21,0.6,0.41a6.16,6.16,0,0,0,4.32,1,2.94,2.94,0,0,0,1.12-.42,1.11,1.11,0,0,0,0-1.94,6.88,6.88,0,0,0-1.73-.7c-0.83-.25-1.7-0.39-2.52-0.66a3.7,3.7,0,0,1-2.57-2.33,3.74,3.74,0,0,1,1.62-4.27,6.39,6.39,0,0,1,4.59-.82,7.63,7.63,0,0,1,3.41,1.42L140,12l-0.52-.26a5.3,5.3,0,0,0-3.39-.61l-0.13,0a1.47,1.47,0,0,0-1.27,1.17,1.29,1.29,0,0,0,1.13,1.18c0.87,0.27,1.77.46,2.65,0.7a9,9,0,0,1,1.14.41,4.26,4.26,0,0,1,2.57,2.93v1.17Z"/><path class="cls-1" d="M77,15.6a6.73,6.73,0,1,1-13.46,0A6.73,6.73,0,1,1,77,15.6Zm-10.42,0a3.7,3.7,0,1,0,7.39,0A3.7,3.7,0,1,0,66.6,15.58Z"/><path class="cls-1" d="M103,22.09l-0.12-1.17a6,6,0,0,1-2.48,1.31,5.75,5.75,0,0,1-6.2-2,5.55,5.55,0,0,1-1-3c-0.08-2.64-.08-5.29-0.11-7.93a0.38,0.38,0,0,1,0-.11h3c0,0.19,0,.37,0,0.55,0,2.07,0,4.15,0,6.22a6.58,6.58,0,0,0,.17,1.34,2.84,2.84,0,0,0,3,2.37,3,3,0,0,0,3-2.53,12.18,12.18,0,0,0,.12-1.88c0-1.83,0-3.67,0-5.5,0-.18,0-0.36,0-0.56h3.07v13H103Z"/><path class="cls-1" d="M125.36,9.1h3.06v13c-0.84,0-1.65,0-2.46,0a0.41,0.41,0,0,1-.23-0.29,8.18,8.18,0,0,1-.06-0.91l-0.42.32a6,6,0,0,1-8.08-.76A5.15,5.15,0,0,1,116,17.4c-0.11-2.74-.13-5.49-0.19-8.28h3.13c0,0.17,0,.35,0,0.52,0,2.18,0,4.36.08,6.54a4.89,4.89,0,0,0,.16,1.07,2.86,2.86,0,0,0,3.16,2.34,3,3,0,0,0,2.9-2.64,12.21,12.21,0,0,0,.1-1.62c0-1.89,0-3.79,0-5.68C125.36,9.48,125.36,9.32,125.36,9.1Z"/><path class="cls-1" d="M88.94,18.36l2.2,2c-1.73,2.2-6.18,3.09-9.23.79a7.32,7.32,0,0,1-.85-10.32,7.05,7.05,0,0,1,9.49-.57l-1.83,2.33a4.6,4.6,0,0,0-4-.55A3.2,3.2,0,0,0,83,13.39a4.17,4.17,0,0,0,.56,5C84.94,19.73,86.89,19.71,88.94,18.36Z"/><path class="cls-1" d="M109.37,2h3V22.1h-3V2Z"/></g></svg>