<svg id="Calque_1" data-name="Calque 1" xmlns="http://www.w3.org/2000/svg" viewBox="0 0 150 150"><title>logo</title><path d="M90.44,1V26.81l31.8-26c0,1,0,1.51,0,2q0,22.54,0,45.07A3.09,3.09,0,0,1,121,50.55Q91.09,75,61.23,99.58c-0.43.35-.88,0.67-1.6,1.23V75.43l-0.49-.33L27.85,100.75c0-1-.1-1.69-0.1-2.36q0-22.06,0-44.13A3.51,3.51,0,0,1,29,51.17Q59.11,26.6,89.13,2C89.42,1.72,89.73,1.51,90.44,1Z"/><path d="M110.07,138.82v10.06h-3.6V132c2.57-.76,3.18-0.57,4.74,1.46l7.16,9.35v-11h3.74v16.93c-2.24.5-4,.26-5.42-1.95-1.86-2.87-4.11-5.49-6.19-8.22Z"/><path d="M27.74,148.87v-17c3.61-.11,7.19-0.51,10.63.71,3.66,1.29,5.47,4.79,4.94,9.15A7.69,7.69,0,0,1,36,148.82C33.36,149.08,30.65,148.87,27.74,148.87Zm3.78-3.19a32.68,32.68,0,0,0,4.31-.24A4.25,4.25,0,0,0,39.35,142c1.07-4.54-2.54-8.12-7-6.89a1.55,1.55,0,0,0-.76,1.2C31.49,139.3,31.52,142.3,31.52,145.67Z"/><path d="M58.86,131.89v3.22H50.47v3.58H58V142H50.51v3.6H59.1v3.25H46.6v-17H58.86Z"/><path d="M101.87,133.81l-1.62,2.34A30.51,30.51,0,0,0,95.09,135a4.7,4.7,0,0,0-4.44,3.47,5.84,5.84,0,0,0,1.62,6.2,5.34,5.34,0,0,0,5.68.61,2,2,0,0,0,.75-1.48,34.14,34.14,0,0,0,0-3.44h3.81c0,1.87,0,3.78,0,5.7a1.71,1.71,0,0,1-.61.89c-2.35,2.32-7.14,3-10.43,1.44a8.93,8.93,0,0,1,1.09-16.53A9.42,9.42,0,0,1,101.87,133.81Z"/><path d="M75.41,133.66l-1.71,2.48c-1.49-.49-2.81-1-4.19-1.34-1.15-.25-2.52-0.07-2.6,1.35,0,0.63,1,1.55,1.77,1.93,1.21,0.61,2.64.79,3.9,1.32a4.62,4.62,0,0,1,3.19,5,5,5,0,0,1-3.92,4.51c-3.65,1-6.77-.12-9.76-2.64l2.15-2.72a10.89,10.89,0,0,0,1.44.91,13,13,0,0,0,3.65,1.33,2.85,2.85,0,0,0,2.31-1.3c0.52-1.14-.54-1.74-1.57-2.08a39.44,39.44,0,0,1-4.78-1.66c-2.82-1.37-3.49-5.63-1.07-7.59a8.7,8.7,0,0,1,4.43-1.69A9,9,0,0,1,75.41,133.66Z"/><path d="M101.18,124.37v-11.7a53.69,53.69,0,0,1,6,.37c2.95,0.5,4.51,2.66,4.39,5.63s-1.77,5-4.73,5.38C105,124.28,103.21,124.26,101.18,124.37Zm2.54-2.35c1.89,0.05,3.64.22,4.71-1.46a3.56,3.56,0,0,0-.11-4.24c-1.15-1.53-2.83-1.53-4.6-1.2V122Z"/><path d="M67.44,124.36a5.92,5.92,0,1,1,6.1-5.82A5.93,5.93,0,0,1,67.44,124.36Zm3.5-6a3.44,3.44,0,1,0-6.86.07,3.49,3.49,0,0,0,3.46,3.68A3.54,3.54,0,0,0,70.95,118.4Z"/><path d="M79.87,131.85h3.6v17.06h-3.6V131.85Z"/><path d="M39.4,112.84h8.17l0.1,2.1H42l-0.12,2.39L47,117.55v1.94h-5V122h5.71l0.14,2.26c-2.66,0-5.2,0-7.74,0a1.14,1.14,0,0,1-.74-0.82C39.38,119.91,39.4,116.42,39.4,112.84Z"/><path d="M85.37,112.85h8l0.15,2.09H87.86v2.47h4.87v2.13H87.9V122h5.62l0.11,2.11H85.37v-11.3Z"/><path d="M122.09,112.85v2h-5.58v2.5h4.86l0.13,2.09h-5L116.34,122h5.81l0.11,2.16H114v-11.3h8.09Z"/><path d="M58.72,120.65L60,122c-1.13,2.58-5.82,3.21-8.42,1a6,6,0,0,1-.45-8.57,6.06,6.06,0,0,1,9,.33l-1.26,1.48c-2.79-1.65-4.64-1.65-6,0a3.76,3.76,0,0,0,.18,4.83C54.51,122.43,56.28,122.36,58.72,120.65Z"/><path d="M27.79,112.84h2.36V122H35l0.1,2.18H27.79V112.84Z"/><path d="M78.28,122.08h4.9v2.09H75.91c0-.69-0.08-1.3-0.09-1.91,0-3.12,0-6.24,0-9.44h2.46v9.25Z"/><path d="M42.12,111.44c-0.82-3.07,1.57-3.63,3.05-5C46.08,109.41,43.66,110,42.12,111.44Z"/><path d="M34.51,115.64c0.88-1.4.72-3.36,3.29-2.67C36.83,114,36.85,115.78,34.51,115.64Z"/></svg>