<svg id="Calque_1" data-name="Calque 1" xmlns="http://www.w3.org/2000/svg" viewBox="0 0 150 150"><defs><style>.cls-1{fill:#fff;}</style></defs><title>logo</title><path d="M46,122.55c1-1.81,2-3.41,2.89-5.07a2.24,2.24,0,0,0,.15-1.74c-2.39-4.87-4.86-9.69-7.32-14.53a6.39,6.39,0,0,0-.45-0.64L37.89,102q-1.85.78-3.7,1.59c-2.4,1.06-5.34,1.6-7,3.34-1.94,2-2.8,5-4,7.63a2.73,2.73,0,0,0,0,1.77,18.2,18.2,0,0,0,1.15,2.45H11.55l2.13,3.85H0c0-.48,0-0.94,0-1.39C0.6,109.84,1.18,98.47,1.82,87.1a6.4,6.4,0,0,1,.83-2.7q3.15-5.53,6.48-11A3.62,3.62,0,0,1,11,72c10.32-2.94,20.66-5.81,31-8.7,0.5-.14,1-0.31,1.88-0.58l-9.46-4.66c1.63-1.39,3-2.72,4.58-3.89,3.53-2.71,7.75-3.08,11.94-3,5.73,0.18,10.89-1.62,15.85-4.1a8.48,8.48,0,0,1,6.46-.49c4.19,1.15,8.43,2.12,12.66,3.12a3.22,3.22,0,0,0,1.7,0c4-1.39,8-2.83,12-4.27a3.89,3.89,0,0,0,.64-0.41c-1.55-3.55-3.06-7.1-4.67-10.59a2.33,2.33,0,0,0-1.43-.83c-1.43-.39-2.89-0.68-4.5-1l2.86-5.25L109,39.66l-6.24,10.17,0.15,0.52a13,13,0,0,0,3.26-.42c5-2,10-4.14,15.06-6.09-4.54,2.92-8.27,7-13.66,8.7-4.51,1.39-9,3-13.39,4.63a28.14,28.14,0,0,0-3.63,2,11,11,0,0,0,1.33.55,25,25,0,0,1,3.14.69c4.85,1.82,9.37.92,14-1.11,3.77-1.67,7.74-2.89,11.63-4.3a2.84,2.84,0,0,1,1.44-.19c-4.13,2.79-8.18,5.7-12.43,8.29-1.22.74-3,.47-4.55,0.78-6,1.26-12,.12-17.92-0.71a3.48,3.48,0,0,0-2.08.4c-8,4.63-15.2,10.48-22.47,16.19a2.4,2.4,0,0,0-.78,1.46c-0.46,3.62-1.06,7.25-1.19,10.89A28.26,28.26,0,0,0,61.59,99c0.8,3.61,1.77,7.19,2.76,10.76a7,7,0,0,0,1.31,2.51c1.73,2.1,3.57,4.11,5.64,6.46H65.75l4,3.8H46ZM10.69,118l0.71,0,7.2-21.53-0.44-.19c-0.11.22-.23,0.43-0.32,0.65-2.43,6.3-4.88,12.59-7.25,18.92A5.64,5.64,0,0,0,10.69,118Zm58-67.52c0.57-.72,1.17-1.14,1.15-1.54a1.52,1.52,0,0,0-1-1.11,1.5,1.5,0,0,0-1.1,1C67.66,49.27,68.21,49.76,68.68,50.52Z"/><path d="M133.79,95v11.65h4.57V95h3.94v27.19h-3.9V110.69h-4.59V122.2h-3.94V95h3.91Z"/><path d="M78.86,108.06c0.17-1.48.32-3,.5-4.44s0.42-3.07.67-4.86c-2.23,0-4.31,0-6.38,0a1.47,1.47,0,0,0-.83,1c-0.38,2.28-.66,4.57-1,6.86-0.07.48-.21,0.94-0.32,1.41L70.93,108l1.16-9.31H67.14V98c1.22,0,2.44-.08,3.65,0s1.68-.44,1.78-1.63c0.15-1.85.45-3.69,0.72-5.81h-5V90.08h5.19l1.38-9.68,0.66,0.08-1.13,9.45c2.25,0,4.37,0,6.48-.06a1.76,1.76,0,0,0,.7-1.22c0.37-2.39.66-4.79,1-7.18a8,8,0,0,1,.34-1.17l0.52,0.12-1.18,9.4H88V70.57h3.72L94.5,81.26l0.31,0V70.58h2.48V90.47c-2.71.57-2.81,0.51-3.43-2q-1.28-5.16-2.59-10.3a1.27,1.27,0,0,0-.58-0.81V90.69c-2.51,0-4.86.05-7.2,0-1.13,0-1.63.24-1.71,1.47C81.65,94,81.3,95.85,81,97.93l4.62,0.21v0.62a22.83,22.83,0,0,1-3.12,0c-1.47-.21-1.82.52-2,1.78-0.25,2.35-.62,4.68-1,7a2.27,2.27,0,0,1-.29.61ZM80.2,97.92l0.94-7.15h-7l-1,7.15H80.2Z"/><path d="M123.5,104c0-1.08,0-2.09,0-3.1-0.07-1.31-.6-2.39-2.07-2.4s-2.11,1-2.12,2.34q-0.05,7.82,0,15.64a2,2,0,0,0,2.16,2.28c1.39,0,1.95-1,2-2.28s0-2.77,0-4.06a1.86,1.86,0,0,1,.45-0.24c3.32-.25,3.33-0.25,3.31,3.06a15,15,0,0,1-.12,2.25c-0.58,3.69-2.53,5.27-6.32,5.17-3.16-.09-5.27-2-5.37-5.44-0.18-5.74-.16-11.49,0-17.23a5.18,5.18,0,0,1,5.31-5.35c3.68-.13,5.73,1.48,6.33,5a9.76,9.76,0,0,1,.16,1.27C127.39,104.39,127.36,104.41,123.5,104Z"/><path d="M113.07,95v3.71H106.2v7.72h5.3v3.89h-5.32v8.09H113v3.79H102.23V95h10.84Z"/><path d="M113.28,90.61H110.7V70.47c0.88,0,1.68,0,2.46,0a1.18,1.18,0,0,1,1.4,1.14c0.67,2.82,1.41,5.62,2.13,8.42a2.33,2.33,0,0,0,.63,1.16V70.6h2.48V90.44c-2.57.68-2.77,0.55-3.42-2-0.93-3.69-1.88-7.37-3.1-11V90.61Z"/><path d="M100.26,95v3.68H96.1v23.53H92.22c0-.64-0.09-1.26-0.09-1.88,0-6.6,0-13.21,0-19.81,0-1.4-.34-2-1.79-1.8a18.21,18.21,0,0,1-2.32,0V95h12.22Z"/><path d="M101.81,70.71a2.44,2.44,0,0,1,.35-0.15c4-.44,4-0.43,4.54,3.51,0.65,4.68,1.39,9.34,2.09,14,0.12,0.79.21,1.59,0.32,2.5h-2.85l-0.59-3.41c-1.16,0-2.67-.44-3.37.12s-0.62,2.13-.89,3.32H98.86Zm2.27,4.73-0.41-.06-1.22,8.78h2.82Z"/><path d="M139.69,73.34h-4.91V79h3.83v2.84h-3.8v6h4.92v2.76h-8c0-.46-0.1-0.93-0.1-1.39,0-5.69,0-11.38,0-17.07,0-1.24.29-1.75,1.61-1.65s2.9,0,4.35,0C140,70.47,140,70.47,139.69,73.34Z"/><path d="M149.92,75.83h-2.61a4.75,4.75,0,0,0-.26-1.6,1.91,1.91,0,0,0-1.22-1,1.88,1.88,0,0,0-1.39.88,9.65,9.65,0,0,0,.88,3.73,18.26,18.26,0,0,0,2.8,3.08,7.35,7.35,0,0,1,1.72,6.6,4.34,4.34,0,0,1-8.54-.28,21.79,21.79,0,0,1,0-2.52h2.47a7.91,7.91,0,0,0,.37,2.12,1.91,1.91,0,0,0,1.31,1.08,2,2,0,0,0,1.46-1.07,9.74,9.74,0,0,0-1.07-3.69,24.33,24.33,0,0,0-2.8-3.09,7.18,7.18,0,0,1-1.63-6.32c0.48-2.51,2-3.59,4.61-3.45,2.31,0.12,3.67,1.47,3.9,3.9C150,74.67,149.92,75.16,149.92,75.83Z"/><path d="M121.31,73.23V70.58h8.93V73.2l-2.91.27V90.57h-2.95c0-1.71,0-3.36,0-5,0-3.39-.08-6.78,0-10.16,0.05-1.59-.34-2.35-2-2.07A4.79,4.79,0,0,1,121.31,73.23Z"/><path class="cls-1" d="M10.69,118a5.64,5.64,0,0,1-.1-2.13C13,109.59,15.4,103.3,17.84,97c0.09-.23.21-0.44,0.32-0.65l0.44,0.19-7.2,21.53Z"/></svg>