<svg id="Calque_1" data-name="Calque 1" xmlns="http://www.w3.org/2000/svg" viewBox="0 0 150 150"><title>logo</title><polygon points="2.65 2.55 9.64 2.55 20.01 34.86 20.01 34.86 20.01 2.55 25.31 2.55 25.31 45.95 18.56 45.95 8.2 12.92 8.2 12.92 8.2 45.95 2.65 45.95 2.65 2.55"/><path d="M36.65,2.55h7.23l9.4,43.15H47.49L45.32,35.1H35L32.79,45.71H26.52ZM44.12,29.8L40.26,8.58h0L35.92,29.8h8.2Z"/><polygon points="54.49 2.55 61.48 2.55 71.6 34.86 71.84 34.86 71.84 2.55 77.15 2.55 77.15 45.95 70.16 45.95 60.03 12.92 59.79 12.92 59.79 45.95 54.49 45.95 54.49 2.55"/><polygon points="87.52 8.58 79.08 8.58 79.08 2.55 101.5 2.55 101.5 8.58 93.3 8.58 93.3 45.95 87.52 45.95 87.52 8.58"/><polygon points="103.43 2.55 122.71 2.55 122.71 8.58 109.21 8.58 109.21 20.39 121.75 20.39 121.75 26.18 109.21 26.18 109.21 40.16 122.95 40.16 122.95 45.95 103.43 45.95 103.43 2.55"/><path d="M130.43,32.45v1.21q0,8,5.79,8c3.62,0,5.3-3.13,5.3-6.27,0-4.58-1.93-6.51-5.06-7.71l-3.86-1.69c-5.06-2.41-7.47-5.79-7.47-11.81,0-8,4.34-12.3,11.09-12.3,9.16,0,10.13,7,10.13,11.33v1h-5.55v-1c0-3.86-1.45-6.27-5.06-6.27-2.41,0-4.82,1.69-4.82,6.27,0,3.62,1.45,5.55,5.3,7.23l3.86,1.69c5.06,2.17,7.23,5.55,7.23,11.33,0,9.16-4.58,13-11.81,13-8.68,0-10.85-7.23-10.85-13.26v-1h5.79v0.24Z"/><path d="M2.65,53.9H12.78c11.09,0,12.54,8.92,12.54,21.7S23.87,97.3,12.78,97.3H2.65V53.9ZM8.44,91.76H13c4.58,0,6.51-3.86,6.51-16.39C19.53,63.31,17.84,59,13,59H8.44V91.76Z"/><rect x="28.93" y="53.9" width="5.55" height="43.15"/><path d="M56.41,92h0c-1.69,4.1-3.62,5.79-8,5.79-7.71,0-10.61-7-10.61-22.42s3.62-22.42,11.81-22.42C58.58,52.94,60,61.38,60,65.48V66.2h-5.3v-1c0-3.13-1.21-7-5.06-7-4.1,0-6.27,3.38-6.27,17.12,0,14,1.93,17.36,5.79,17.36,4.34,0,6-3.86,6-13.26h-6v-5.3H60.51V96.82H56.17V92h0.24Z"/><rect x="64.13" y="53.9" width="5.55" height="43.15"/><polygon points="79.8 59.69 71.36 59.69 71.36 53.91 93.78 53.91 93.78 59.69 85.59 59.69 85.59 97.06 79.8 97.06 79.8 59.69"/><path d="M99.81,53.9H107l9.4,43.15h-5.79l-2.17-10.61H98.12L96,97.06h-6Zm7.47,27-4.1-21.22h0L98.85,80.91h8.44Z"/><polygon points="116.93 53.91 122.71 53.91 122.71 91.27 136.21 91.27 136.21 97.06 116.93 97.06 116.93 53.91"/><polygon points="0 105.02 5.79 105.02 10.37 138.53 10.61 138.53 15.19 105.02 21.22 105.02 26.04 138.77 26.04 138.77 30.62 105.02 36.4 105.02 29.17 148.17 22.66 148.17 18.08 115.62 18.08 115.62 13.5 148.17 6.99 148.17 0 105.02"/><polygon points="38.33 105.02 57.38 105.02 57.38 110.8 43.88 110.8 43.88 122.61 56.66 122.61 56.66 128.64 43.88 128.64 43.88 142.38 57.86 142.38 57.86 148.17 38.33 148.17 38.33 105.02"/><polygon points="60.99 105.02 80.04 105.02 80.04 110.8 66.54 110.8 66.54 122.61 79.32 122.61 79.32 128.64 66.54 128.64 66.54 142.38 80.52 142.38 80.52 148.17 60.99 148.17 60.99 105.02"/><polygon points="83.66 105.02 89.2 105.02 89.2 123.82 89.2 123.82 100.05 105.02 106.32 105.02 95.95 123.1 107.28 148.17 101.02 148.17 92.34 128.64 89.2 134.19 89.2 148.17 83.66 148.17 83.66 105.02"/></svg>